<?xml version="1.0" standalone="no"?>
<!DOCTYPE svg PUBLIC "-//W3C//DTD SVG 20010904//EN"
 "http://www.w3.org/TR/2001/REC-SVG-20010904/DTD/svg10.dtd">
<svg version="1.0" xmlns="http://www.w3.org/2000/svg"
 width="500.000000pt" height="500.000000pt" viewBox="0 0 500.000000 500.000000"
 preserveAspectRatio="xMidYMid meet">
<metadata>
Created by potrace 1.11, written by Peter Selinger 2001-2013
</metadata>
<g transform="translate(0.000000,500.000000) scale(0.100000,-0.100000)"
fill="#000000" stroke="none">
<path d="M2308 4995 c-2 -2 -34 -6 -73 -9 -93 -9 -312 -51 -400 -76 -38 -12
-81 -23 -94 -26 -13 -3 -32 -9 -41 -14 -9 -5 -45 -19 -81 -31 -111 -38 -359
-164 -484 -246 -508 -336 -879 -838 -1039 -1409 -14 -49 -27 -100 -30 -114 -2
-14 -7 -32 -10 -40 -5 -15 -12 -52 -22 -125 -3 -22 -7 -46 -9 -53 -18 -55 -27
-519 -12 -617 4 -22 10 -62 13 -90 7 -52 10 -73 19 -115 3 -14 7 -34 9 -45 12
-60 47 -196 61 -235 9 -25 18 -52 20 -60 7 -33 87 -225 126 -303 65 -129 154
-272 248 -397 95 -128 305 -344 426 -440 184 -146 424 -286 630 -368 89 -36
245 -88 285 -97 8 -2 42 -10 75 -18 33 -9 76 -18 95 -21 19 -3 44 -7 55 -10
103 -20 231 -30 395 -30 174 -1 349 8 383 19 7 2 31 6 54 9 22 3 52 8 65 10
12 3 34 8 48 10 152 28 405 116 573 198 157 77 369 210 467 294 244 207 394
375 540 599 61 95 174 309 214 405 19 48 95 270 101 298 2 9 13 60 25 112 12
52 23 111 26 130 2 19 7 46 9 60 27 147 27 554 0 705 -3 17 -8 46 -11 65 -12
71 -15 86 -30 150 -9 36 -17 72 -19 80 -74 307 -275 689 -514 975 -41 48 -263
268 -299 295 -19 14 -39 30 -45 36 -7 5 -46 35 -87 65 -183 135 -426 262 -643
338 -195 68 -338 100 -567 128 -41 5 -447 12 -452 8z m-78 -312 c-79 -219
-102 -273 -115 -273 -7 0 -62 52 -122 116 -59 64 -120 130 -135 146 -45 46
-50 43 117 83 79 20 95 23 235 43 30 4 57 7 59 6 2 -2 -16 -56 -39 -121z m580
113 c25 -3 56 -8 70 -11 14 -3 41 -8 60 -11 46 -6 220 -51 227 -58 4 -3 -18
-32 -48 -63 -30 -32 -70 -75 -89 -97 -63 -70 -141 -146 -150 -146 -13 0 -23
21 -58 120 -17 47 -46 129 -66 182 -34 94 -35 96 -13 93 12 -2 42 -6 67 -9z
m-1399 -328 c1 -40 3 -95 4 -123 9 -192 9 -215 -1 -225 -12 -12 -29 -5 -233
91 -57 27 -106 49 -110 49 -3 0 -15 7 -25 15 -18 14 -18 15 5 34 32 27 256
181 263 181 3 0 22 11 42 25 20 14 41 25 45 25 5 0 10 -33 10 -72z m2301 6
c97 -59 258 -174 258 -184 0 -3 -19 -14 -42 -25 -41 -17 -169 -77 -270 -124
-80 -38 -84 -33 -80 94 3 92 6 182 11 289 1 23 8 21 123 -50z m-1017 -448
c393 -56 733 -244 987 -546 44 -53 178 -253 178 -266 0 -3 13 -34 29 -68 37
-77 93 -235 106 -301 26 -127 34 -225 30 -375 -3 -149 -7 -193 -20 -240 -3 -8
-7 -33 -10 -55 -9 -55 -70 -237 -107 -315 -105 -224 -300 -461 -486 -589 -26
-18 -80 -98 -73 -108 0 -2 1 -12 1 -24 0 -14 -10 -24 -30 -32 -21 -8 -30 -18
-30 -34 0 -26 -18 -32 -98 -36 -31 -2 -57 -9 -62 -16 -6 -10 -22 -12 -56 -8
-37 4 -54 12 -73 35 -14 16 -44 35 -66 42 -50 16 -91 53 -99 91 -7 37 -23 37
-38 2 -7 -16 -21 -41 -31 -56 -11 -15 -17 -37 -14 -47 5 -20 -8 -29 -15 -11
-4 12 -77 21 -84 10 -9 -15 -33 -10 -54 11 -16 16 -28 19 -60 14 -22 -4 -40
-7 -40 -8 0 -1 5 -29 11 -62 7 -39 19 -68 36 -86 25 -26 27 -26 54 -12 32 16
61 73 61 117 -1 15 3 25 8 22 8 -5 6 -39 -6 -77 -3 -9 0 -19 6 -23 13 -8 57
30 66 57 3 10 10 18 15 18 14 0 -15 -51 -43 -77 -15 -14 -28 -19 -37 -14 -8 5
-21 1 -35 -13 -64 -61 -106 -80 -122 -55 -4 6 -20 8 -39 5 -26 -5 -39 -1 -63
19 -16 14 -36 25 -44 25 -19 0 -58 70 -58 104 0 14 -9 35 -19 45 -11 11 -23
37 -27 58 -7 39 -20 63 -34 63 -5 0 -18 -20 -30 -44 -16 -33 -32 -50 -64 -65
-23 -12 -48 -21 -56 -21 -7 0 -25 -14 -40 -31 -21 -26 -35 -32 -78 -37 -40 -3
-52 -1 -52 9 0 11 -18 15 -71 17 -80 2 -89 6 -89 32 0 12 -13 26 -30 35 -27
14 -33 28 -30 70 2 21 -47 77 -115 130 -97 76 -197 176 -264 265 -14 19 -28
37 -31 40 -25 23 -128 208 -174 310 -26 59 -65 190 -88 295 -16 79 -21 136
-22 270 0 201 4 244 43 396 106 423 379 770 771 982 68 36 227 102 270 111 14
3 61 14 105 25 44 11 112 23 150 27 39 3 71 8 73 9 4 4 273 -4 307 -9z m1686
-171 c68 -94 170 -257 164 -263 -4 -4 -108 -10 -282 -16 -125 -4 -132 -4 -138
15 -4 11 -2 25 3 32 5 7 25 48 45 92 91 208 117 256 130 243 7 -7 42 -53 78
-103z m-3637 33 c18 -40 46 -100 61 -133 16 -33 38 -82 51 -109 30 -65 21 -83
-38 -80 -24 1 -113 6 -198 9 -85 4 -158 9 -162 11 -16 10 221 372 244 374 4 0
23 -33 42 -72z m-434 -748 c3 -3 34 -32 70 -64 148 -136 201 -190 198 -204 -2
-10 -61 -37 -158 -73 -253 -94 -233 -91 -226 -32 6 55 11 85 32 193 2 8 13 59
25 112 23 100 25 102 59 68z m4430 -27 c18 -73 19 -75 29 -118 5 -22 13 -62
17 -90 3 -27 8 -53 10 -56 2 -3 6 -33 9 -67 l7 -61 -99 36 c-295 107 -293 106
-293 127 0 7 46 55 102 107 56 52 122 113 146 136 25 23 49 40 52 38 4 -3 13
-26 20 -52z m-4162 -997 c16 -16 26 -4 -153 -171 -132 -123 -143 -132 -150
-113 -26 75 -65 257 -80 381 l-7 56 188 -70 c104 -38 194 -75 202 -83z m4228
102 c-5 -47 -11 -86 -31 -193 -3 -16 -11 -52 -17 -80 -7 -27 -13 -53 -14 -57
-1 -5 -2 -10 -3 -13 0 -3 -1 -8 -2 -12 -1 -5 -5 -16 -11 -26 -8 -16 -15 -12
-61 31 -29 27 -85 80 -126 118 -112 104 -121 114 -121 129 0 7 30 25 68 39
143 55 307 115 315 115 5 1 6 -23 3 -51z m-3938 -807 c25 -2 25 -3 -104 -280
-24 -51 -44 -97 -44 -102 0 -24 -27 4 -107 112 -53 72 -153 235 -153 249 0 6
3 10 8 11 4 0 75 3 157 6 83 3 151 6 152 7 2 2 62 0 91 -3z m3655 -4 c15 0 27
-4 27 -7 0 -14 -144 -238 -198 -308 l-55 -73 -33 68 c-38 80 -87 186 -120 262
-13 29 -21 57 -18 63 4 6 74 7 188 3 99 -4 193 -8 209 -8z m-818 -577 c295
-134 278 -123 240 -155 -45 -38 -307 -212 -331 -219 -19 -6 -22 -3 -22 26 1
18 -3 111 -6 207 -8 189 -5 201 43 176 14 -7 49 -23 76 -35z m-2284 -110 c-3
-125 -6 -221 -10 -268 -1 -8 -15 -4 -41 13 -22 14 -42 25 -45 25 -7 0 -213
140 -240 163 -11 9 -29 23 -40 31 -19 14 -15 17 60 52 246 114 291 134 305
131 13 -2 14 -25 11 -147z m785 -336 c39 -104 70 -192 68 -196 -3 -4 -14 -5
-27 -3 -12 2 -44 7 -71 10 -27 3 -83 12 -125 21 -42 9 -84 18 -95 20 -10 2
-43 11 -73 19 l-55 16 18 22 c100 117 267 288 278 284 6 -2 43 -89 82 -193z
m801 79 c61 -65 124 -134 142 -153 l32 -35 -58 -18 c-117 -35 -393 -85 -393
-70 0 5 67 188 81 221 5 13 19 52 30 85 21 62 35 87 49 87 4 0 57 -53 117
-117z"/>
<path d="M1062 2898 l3 -93 493 0 492 0 1 -25 c0 -14 0 -185 0 -381 l-1 -356
103 0 c56 0 107 1 112 3 6 3 10 135 9 374 -1 265 1 372 10 377 6 4 380 7 830
8 l820 0 0 90 0 90 -1437 3 -1438 2 3 -92z"/>
<path d="M1060 2456 c0 -260 1 -283 20 -321 33 -69 119 -106 244 -107 73 -1
128 15 174 49 63 47 65 57 66 373 l1 285 -110 0 -110 0 -1 -282 c-1 -295 -4
-316 -44 -306 -17 5 -19 13 -17 69 1 35 -2 64 -6 64 -5 0 -6 4 -3 9 8 13 9
431 1 439 -3 4 -53 7 -111 7 l-104 0 0 -279z"/>
<path d="M1646 2730 c-1 -3 -2 -158 -2 -345 l1 -340 175 0 175 0 3 68 3 67
-64 0 c-43 0 -66 4 -69 13 -2 6 -4 130 -3 275 0 144 -2 263 -5 263 -17 5 -212
4 -214 -1z"/>
<path d="M2359 2731 c0 -4 -1 -156 -2 -339 -1 -229 1 -337 9 -343 6 -5 55 -8
110 -6 l99 2 0 345 0 345 -107 1 c-60 0 -108 -2 -109 -5z"/>
<path d="M2666 2731 c-2 -3 -3 -160 -3 -348 l0 -341 96 1 96 2 0 212 c0 116 1
210 4 208 2 -2 20 -98 40 -212 l37 -208 68 0 c54 0 70 3 72 15 1 8 5 31 9 50
3 19 19 112 34 205 l29 170 1 -221 1 -221 95 -1 c52 0 95 2 96 6 1 4 2 159 3
345 0 218 -3 337 -9 338 -30 4 -277 3 -280 -1 -1 -3 -6 -30 -9 -61 -4 -31 -9
-67 -11 -80 -3 -13 -10 -53 -16 -89 -10 -65 -18 -87 -20 -57 -1 10 -2 20 -3
25 -1 4 -6 32 -10 62 -8 54 -10 66 -22 125 -4 17 -7 38 -8 47 -1 10 -6 21 -10
25 -9 9 -275 12 -280 4z"/>
<path d="M3489 2731 c0 -4 -2 -17 -5 -31 -32 -185 -49 -288 -59 -365 -2 -16
-7 -41 -9 -55 -3 -13 -8 -40 -11 -60 -3 -20 -7 -45 -9 -56 -2 -12 -7 -44 -11
-72 l-6 -50 111 0 c74 0 113 4 115 12 2 6 6 34 9 61 3 28 5 51 5 52 1 0 17 1
37 1 42 0 41 2 53 -119 1 -11 221 -8 221 2 0 6 -16 98 -36 207 -19 108 -40
221 -45 250 -29 167 -39 215 -45 222 -7 7 -314 8 -315 1z m175 -201 c0 -17 5
-72 12 -123 18 -125 20 -117 -24 -117 l-39 0 9 58 c4 31 10 71 12 87 14 101
19 125 25 125 3 0 6 -14 5 -30z"/>
<path d="M2488 1825 c-3 -3 1 -29 10 -57 l15 -52 -32 -28 c-26 -23 -28 -28
-12 -28 10 0 24 7 31 15 15 18 37 21 22 3 -18 -24 -7 -58 26 -78 39 -24 51
-63 27 -90 -16 -17 -15 -20 4 -39 34 -34 58 -27 65 17 3 20 7 46 10 57 17 84
17 85 -4 85 -12 0 -35 -7 -51 -16 -35 -18 -36 -17 -42 16 -6 31 -57 200 -61
200 -1 0 -5 -2 -8 -5z"/>
<path d="M2064 1732 c-17 -40 -11 -47 50 -53 38 -4 64 -13 72 -23 7 -10 15
-13 18 -7 8 12 -49 78 -74 86 -43 14 -59 13 -66 -3z"/>
<path d="M2874 1734 c-34 -14 -86 -72 -78 -86 3 -5 17 1 31 12 17 13 41 20 68
20 49 0 54 3 48 34 -6 30 -29 36 -69 20z"/>
<path d="M2340 1695 c-30 -19 -60 -39 -67 -45 -7 -5 -16 -10 -21 -10 -18 0
-31 -26 -25 -48 7 -30 14 -28 40 13 15 23 28 32 38 29 9 -4 15 0 15 8 0 8 20
29 45 47 25 18 45 34 45 37 0 10 -19 2 -70 -31z"/>
<path d="M2614 1707 c59 -45 66 -53 70 -77 2 -14 -1 -31 -6 -37 -7 -9 -7 -13
1 -13 14 0 33 48 25 62 -4 7 -2 8 4 4 7 -4 12 -14 12 -22 0 -8 4 -14 9 -14 5
0 13 -10 17 -22 6 -21 7 -21 20 -3 17 22 18 45 4 45 -6 0 -23 8 -38 19 -66 45
-126 81 -136 80 -6 0 2 -10 18 -22z"/>
<path d="M1926 1673 c-11 -3 -38 -17 -60 -32 l-41 -26 28 -3 c18 -2 38 5 56
20 16 13 37 28 47 35 20 13 7 15 -30 6z"/>
<path d="M1953 1647 c-53 -39 -123 -120 -123 -140 0 -9 6 -17 13 -20 6 -2 8
-8 4 -13 -12 -13 -37 25 -30 44 4 10 17 27 30 39 32 31 29 39 -16 41 -77 5
-120 -68 -77 -133 20 -30 67 -56 73 -39 2 6 10 19 17 29 10 14 16 15 34 6 48
-25 157 -14 198 20 14 11 13 15 -6 29 -11 8 -27 36 -34 61 -12 38 -12 49 0 70
19 34 17 39 -13 38 -16 0 -47 -15 -70 -32z"/>
<path d="M2950 1671 c0 -5 7 -14 15 -21 27 -23 4 -108 -38 -141 -21 -17 -21
-17 14 -38 19 -11 42 -22 52 -22 63 -5 85 -4 112 4 37 12 65 35 65 54 0 22
-79 111 -128 144 -41 28 -92 39 -92 20z"/>
<path d="M3044 1668 c10 -7 31 -23 46 -35 27 -22 80 -32 80 -15 0 10 -81 48
-120 57 -23 5 -23 4 -6 -7z"/>
<path d="M2063 1655 c-47 -33 -9 -148 50 -151 77 -4 79 -4 69 -17 -11 -13 -11
-27 2 -64 11 -33 22 -28 39 15 9 20 30 52 47 71 34 37 34 39 0 43 -17 2 -25
-3 -28 -17 -5 -24 -21 -45 -35 -45 -5 0 -3 8 6 18 19 20 23 52 7 52 -5 0 -10
11 -10 24 0 63 -95 108 -147 71z"/>
<path d="M2851 1663 c-30 -12 -63 -57 -58 -81 3 -17 1 -22 -9 -18 -19 7 -18
-38 1 -54 10 -9 30 -10 63 -6 26 4 53 7 60 8 18 2 42 40 52 82 6 29 4 38 -14
55 -21 20 -64 26 -95 14z"/>
<path d="M2342 1640 c-37 -23 -38 -27 -16 -51 15 -17 15 -20 -10 -49 -14 -18
-24 -36 -21 -41 3 -4 0 -21 -8 -36 -9 -19 -12 -52 -9 -103 2 -41 5 -76 6 -77
1 -1 15 -4 31 -7 36 -7 102 30 139 76 14 18 26 28 26 21 0 -17 -64 -79 -101
-99 -29 -14 -30 -18 -24 -52 9 -48 33 -88 59 -100 25 -11 116 -10 136 3 63 39
66 78 11 138 -55 60 -82 118 -74 158 5 28 4 31 -15 25 -43 -14 -117 40 -127
94 -6 29 67 90 107 90 37 0 28 14 -10 16 -15 1 -36 4 -47 7 -12 4 -33 -1 -53
-13z"/>
<path d="M2394 1587 c-33 -30 -36 -36 -27 -63 6 -18 25 -37 48 -51 36 -20 41
-21 74 -7 20 8 49 28 66 44 24 25 28 33 19 48 -6 9 -14 15 -17 12 -3 -3 -17 6
-31 19 -14 13 -41 25 -60 28 -30 3 -42 -2 -72 -30z"/>
<path d="M2270 1580 c0 -13 7 -20 20 -20 18 0 19 2 8 20 -7 11 -16 20 -20 20
-5 0 -8 -9 -8 -20z"/>
<path d="M3130 1592 c0 -5 11 -19 24 -31 33 -31 38 -56 16 -84 -15 -19 -16
-25 -5 -41 25 -34 89 11 101 72 9 45 -35 88 -93 90 -24 1 -43 -2 -43 -6z"/>
<path d="M2686 1564 c-24 -23 -19 -27 9 -8 14 9 25 18 25 20 0 10 -20 3 -34
-12z"/>
<path d="M2713 1553 c-55 -11 -80 -91 -45 -147 15 -25 25 -30 65 -33 45 -4 48
-2 78 39 23 32 29 37 24 18 -4 -14 -19 -37 -33 -53 l-26 -27 21 -28 c33 -45
77 -69 125 -68 l43 1 3 49 c5 66 -15 130 -50 165 -31 31 -52 31 -75 3 -12 -14
-13 -14 -13 1 0 12 -8 17 -26 17 -19 0 -28 8 -40 35 -8 19 -18 34 -22 34 -4
-1 -17 -4 -29 -6z"/>
<path d="M2263 1486 c-11 -13 -53 -100 -53 -110 0 -11 28 -6 39 7 6 8 13 31
16 51 2 21 10 44 16 52 15 18 -2 18 -18 0z"/>
<path d="M2085 1472 c-36 -33 -48 -66 -51 -144 l-4 -78 41 0 c56 0 93 22 116
69 20 40 20 40 0 71 -11 17 -23 46 -26 63 -8 38 -44 47 -76 19z"/>
<path d="M2516 1458 c-21 -29 -20 -64 3 -113 16 -33 83 -115 94 -115 2 0 18
14 36 30 27 26 31 37 28 68 -6 61 -28 101 -58 107 -14 3 -36 15 -47 25 -27 26
-37 25 -56 -2z"/>
<path d="M1720 1435 c-6 -8 -14 -32 -17 -54 -5 -35 -2 -44 24 -70 29 -29 78
-49 89 -38 3 3 0 15 -6 27 -7 13 -9 39 -6 64 6 39 4 42 -29 64 -41 26 -39 26
-55 7z"/>
<path d="M1831 1399 c-20 -46 -21 -55 -9 -87 27 -72 123 -119 174 -85 18 11
22 26 27 101 3 48 8 95 12 105 6 15 4 16 -16 8 -27 -10 -100 -8 -140 3 -24 7
-28 3 -48 -45z"/>
<path d="M3095 1438 c-22 -5 -62 -7 -89 -3 -44 5 -48 4 -40 -12 4 -10 9 -52
10 -93 3 -67 6 -77 29 -97 14 -13 35 -23 45 -23 31 0 86 33 111 67 26 36 46
44 29 13 -10 -18 -8 -19 22 -16 70 8 113 103 70 156 l-18 23 -37 -24 c-35 -23
-37 -26 -32 -69 2 -25 2 -36 -1 -25 -8 32 -47 115 -53 114 -3 -1 -24 -5 -46
-11z"/>
<path d="M2226 1346 c-46 -42 -49 -85 -9 -122 22 -20 35 -24 72 -22 38 2 47 7
49 24 2 17 -6 26 -35 40 -37 18 -38 20 -35 67 1 26 0 47 -2 47 -3 0 -21 -15
-40 -34z"/>
<path d="M2690 1336 c0 -25 35 -76 51 -76 6 0 8 15 5 35 -3 19 -2 35 2 35 4 0
9 -15 10 -32 3 -34 26 -78 41 -78 18 0 19 55 1 75 -9 11 -23 31 -30 44 -10 19
-14 21 -21 10 -6 -10 -9 -11 -9 -1 0 6 -11 12 -25 12 -20 0 -25 -5 -25 -24z"/>
<path d="M1681 1316 c-23 -28 -30 -73 -15 -95 8 -11 14 -26 13 -33 -7 -53 21
-86 61 -73 17 5 100 117 100 134 0 3 -14 7 -31 8 -17 1 -47 11 -65 22 l-34 21
-16 -41 c-22 -54 -28 -44 -8 15 17 49 15 66 -5 42z"/>
<path d="M3300 1320 c0 -20 33 -90 42 -90 11 0 1 56 -16 82 -12 20 -26 24 -26
8z"/>
<path d="M3260 1280 c-14 -10 -41 -20 -60 -23 -19 -2 -34 -9 -33 -15 6 -27 75
-121 92 -127 24 -7 61 10 62 30 1 8 2 25 3 38 2 24 -22 104 -33 111 -3 2 -18
-4 -31 -14z"/>
<path d="M2647 1243 c-35 -37 -36 -39 -24 -73 27 -77 60 -96 97 -58 24 25 50
78 50 102 0 11 -39 42 -80 63 -3 2 -22 -14 -43 -34z"/>
<path d="M2139 1250 c-8 -5 -37 -10 -64 -12 -47 -3 -51 -6 -71 -43 -32 -62
-13 -110 40 -102 89 14 137 60 134 130 -1 37 -10 44 -39 27z"/>
<path d="M2828 1243 c-7 -86 31 -131 124 -148 31 -6 38 -4 52 17 15 22 15 29
0 71 -9 26 -19 47 -22 48 -4 1 -24 2 -45 4 -21 2 -52 8 -69 14 -39 14 -38 14
-40 -6z"/>
<path d="M1820 1188 c-18 -29 -32 -63 -32 -75 0 -13 -5 -23 -10 -23 -5 0 -6 5
-2 11 4 7 -1 10 -12 7 -23 -4 -27 -53 -4 -53 8 0 14 6 13 13 -4 16 5 15 23 -3
31 -31 106 -11 154 40 23 25 23 25 2 25 -15 0 -23 8 -28 28 -10 47 -12 51 -43
66 l-29 16 -32 -52z"/>
<path d="M3123 1227 c-13 -5 -23 -14 -23 -19 0 -5 -18 -8 -40 -7 -42 3 -44 2
-34 -36 8 -31 32 -32 44 -2 7 18 9 19 9 4 1 -11 -9 -27 -21 -37 l-22 -18 49
-31 c113 -72 168 -13 99 105 -31 53 -33 54 -61 41z"/>
<path d="M1958 1202 c-28 -3 -34 -16 -22 -46 10 -25 31 -19 44 14 15 36 14 37
-22 32z"/>
<path d="M2254 1175 c-11 -27 25 -86 61 -101 34 -14 60 -13 94 6 27 14 26 23
-1 35 -13 6 -32 24 -43 42 -17 28 -26 32 -63 33 -29 0 -44 -5 -48 -15z"/>
<path d="M2586 1138 c-16 -22 -15 -24 5 -40 27 -23 42 -13 34 21 -10 40 -21
45 -39 19z"/>
<path d="M1935 1077 c-21 -18 -35 -38 -32 -44 9 -15 78 -5 99 14 16 14 16 17
0 39 -9 13 -20 24 -23 24 -3 0 -23 -15 -44 -33z"/>
<path d="M3001 1091 c-20 -18 -21 -19 -4 -39 23 -26 86 -38 102 -19 9 11 4 19
-24 38 -19 13 -35 27 -35 32 0 12 -16 8 -39 -12z"/>
<path d="M3227 1092 c-6 -26 5 -43 22 -33 15 10 11 43 -5 48 -6 2 -14 -5 -17
-15z"/>
<path d="M2410 1069 c-19 -10 -45 -19 -57 -19 l-22 0 20 -47 c27 -63 56 -93
90 -93 43 0 53 28 39 111 -7 40 -17 69 -23 68 -7 0 -28 -9 -47 -20z"/>
<path d="M2300 1045 c0 -21 38 -90 45 -83 6 6 -20 77 -33 90 -9 9 -12 7 -12
-7z"/>
<path d="M2496 934 c-9 -24 17 -49 38 -37 15 8 14 12 -7 32 -22 20 -25 21 -31
5z"/>
</g>
</svg>
