<svg xmlns="http://www.w3.org/2000/svg" viewBox="0 0 2362 2362">
  <style>
    .st0{display:none;} .st1{display:inline;fill:#2E3192;} .st2{display:none;fill:#FFFFFF;}
  </style>
  <g id="BG-color" class="st0">
    <path id="XMLID_10_" class="st1" d="M2 1h2362v2364H2z"/>
  </g>
  <g id="Tegoei">
    <path id="tandwiel" d="M1184.6 51.8c-624.1 0-1130 505.9-1130 1130s505.9 1130 1130 1130 1130-505.9 1130-1130-505.9-1130-1130-1130zM2230 1082.4l-166.6-61.3c-3-1.1-6.1-2.7-8.5-4.8-6.5-5.8-5.7-11.5.9-17.4l132.7-122.3c20.8 67.3 34.6 136.3 41.5 205.8zm-560.5-644.9l7.3-180.4c62.3 32.9 120.8 71.9 174.8 116.3l-161.2 74.5c-2.9 1.4-6.2 2.4-9.3 2.6-8.6.5-12.1-4.1-11.6-13zm-179-257.5l-120.4 130.5c-2.1 2.4-4.8 4.6-7.6 6-7.8 3.8-12.8.8-15.7-7.5l-62.2-169.4c70 6.5 139.1 20.2 205.9 40.4zm-407.6-40.4l-61.3 166.6c-1.1 3-2.7 6.1-4.8 8.5-5.8 6.5-11.5 5.7-17.4-.9L877 181c67.4-20.8 136.3-34.6 205.9-41.4zM690.8 258.2l7.1 177.4c.2 3.2-.1 6.6-1.2 9.6-2.9 8.2-8.5 9.7-16.4 5.8l-163.8-75.8c54.2-44.9 112.6-84.1 174.3-117zM373.9 517.8L448.3 679c1.4 2.9 2.4 6.2 2.6 9.3.5 8.6-4.1 12.2-13 11.6l-180.4-7.3c33-62.2 72.1-120.7 116.4-174.8zM180.5 879L311 999.4c2.4 2.1 4.6 4.8 6 7.6 3.8 7.8.8 12.8-7.5 15.7L140 1085c6.6-70.1 20.2-139.2 40.5-206zM140 1286.6l166.6 61.3c3 1.1 6.1 2.7 8.5 4.8 6.5 5.8 5.7 11.5-.9 17.4l-132.7 122.3c-20.8-67.2-34.6-136.2-41.5-205.8zm311.5 402.7l-75.8 163.8c-44.9-54.2-84.1-112.7-117-174.3l177.4-7.1c3.2-.2 6.6.1 9.6 1.2 8.2 2.8 9.6 8.4 5.8 16.4zm249 242.2l-7.3 180.4c-62.3-32.9-120.8-71.9-174.8-116.3l161.2-74.5c2.9-1.4 6.2-2.4 9.3-2.6 8.6-.4 12.1 4.2 11.6 13zM879.4 2189l120.4-130.5c2.1-2.4 4.8-4.6 7.6-6 7.8-3.8 12.8-.8 15.7 7.5l62.2 169.4c-70-6.4-139-20.1-205.9-40.4zm407.7 40.5l61.3-166.6c1.1-3 2.7-6.1 4.8-8.5 5.8-6.5 11.5-5.7 17.4.9l122.3 132.7c-67.3 20.8-136.3 34.6-205.8 41.5zm392.1-118.6l-7.1-177.4c-.2-3.2.1-6.6 1.2-9.6 2.9-8.2 8.5-9.7 16.4-5.8l163.8 75.8c-54.2 44.9-112.7 84-174.3 117zM1576.6 1749v.3c-1.1.7-2.1 1.6-3 2.3-.4 12-.6 13.4-10.1 15.7-.9 10.6-1.6 21.2-2.9 31.7-.3 2.6-2 5.6-4 7.4-4.4 4-17.6 9.7-23.9 10.9 0 4.1-.1 8.4 0 12.7.1 4.5-1.5 7.9-6.1 9-4.8 1.2-9.5 2.6-14.4 3.1-7.9.8-15.8.7-23.7 1.5-11.3 1.1-13.5 1.1-23.8-2.6-.9 2-1.8 4.2-2.8 6.2-4.1 8.2-6.5 9.6-15.8 8.4-7.5-1-15-2.5-22.6-3.1-8.8-.7-15.1-4.9-19.6-12-3.2-5-5.9-10.4-8.9-15.6-14.6-1.8-28.5-5.9-41.5-12.9-17.3-9.3-25.8-24.2-28.3-43.8-3.6-1.5-7.4-3.2-10.9-4.7-3.8 10-6.5 19.2-10.7 27.7-3.5 7.1-8.5 13.4-13.2 19.8-2.8 3.9-4.6 7-2.9 12.5 4.3 13.6 3.1 26.6-7.9 37.4-4.3 4.2-8.1 8.8-12.3 13.1-6.5 6.5-9.1 6.9-17.6 3.1-1.5-.7-2.9-1.6-5-2.7-5.1 11.1-14.3 17.6-24.9 22.7-2.5 1.2-4.3 4-6.5 5.9-3 2.6-5.8 5.5-9.1 7.7-9.9 6.5-14.7 5.8-22.4-2.9-1.5-1.7-3.1-3.4-4.1-4.5-8.3 2-15.9 4.2-23.6 5.6-2.6.5-6.2-.4-8.2-2-8.4-7-16.3-14.5-24.9-22.3-1.7.5-4.9 2.7-7.4 2-2.8-.7-5.6-3.5-7.4-6.1-4.9-7.1-9.7-14.3-13.6-21.9-3.9-7.7-4.7-16.4-3.4-25 .5-3.4-.4-5.4-3.1-7.7-13.4-11.3-17.8-26.8-18.8-43.5-.3-4.3.9-9-4.4-11-5.7-2.2-10.6-9.7-18-3-1.1 4.5-2 9.4-3.5 14-7.3 22.6-25.8 31.8-46.4 38.2-6.3 2-13 2.7-20.3 4.3-1.8 3.3-3.8 7.5-6.1 11.4-5.1 8.7-11.3 15.2-22.5 15.8-8.4.4-16.7 2.5-25 3.8-5.2.8-9.2-1-11.7-5.7-1.5-2.9-2.7-5.9-4.3-9.4-9.9 4.8-19.7 3-29.6 1.6-4.2-.6-8.6-.3-12.9-.5-5-.2-10.1.2-14.8-1-9.2-2.4-10.5-4.9-10.2-14.2.1-3.2 0-6.5 0-7.5-9.3-4.9-17-8.5-24.2-12.9-2-1.2-3.3-4.8-3.7-7.4-1.3-10.4-2.2-21-3.2-31.4-10.9-3.3-9.9-5-10.4-15.6v-1C613.2 1626.4 493 1416.5 493 1178.5c0-382.1 309.7-691.8 691.8-691.8s691.8 309.7 691.8 691.8c.1 236.8-118.7 445.7-300 570.5zm341.9-1069.2l75.8-163.8c44.9 54.2 84.1 112.7 117 174.3l-177.4 7.1c-3.2.2-6.6-.1-9.6-1.2-8.2-2.8-9.7-8.4-5.8-16.4zm77.6 1171.5l-74.5-161.2c-1.4-2.9-2.4-6.2-2.6-9.3-.5-8.6 4.1-12.2 13-11.6l180.4 7.3c-33 62.2-72 120.7-116.3 174.8zm62.9-481.6c-2.4-2.1-4.6-4.8-6-7.6-3.8-7.8-.8-12.8 7.5-15.7l169.4-62.2c-6.6 70.1-20.2 139.1-40.5 206L2059 1369.7z"/>
    <g id="hop">
      <path id="XMLID_230_" class="st0" d="M1191.6 2309.8c-309.8-4.8-574-108-792-319.3-221.6-214.7-333.4-480-345-787.9-1.1-305.4 97.9-573.2 307.4-796.4C563.4 191.7 813.7 75.8 1106.7 51.6c329.9-17 618.6 83.1 858.3 311.4 217.8 207.3 331.4 464.7 349 764.7 9.7 320-91.3 599.6-312.8 831.5-221.4 231.7-496.3 344.5-809.6 350.6zm382-559.2c.9-.7 1.9-1.6 3-2.3 35.4-23.4 67.9-50.5 97.7-80.5 20.6-20.7 39.2-43.5 57.6-66.2 22.7-28 42.3-58.3 59.2-90 22.9-42.8 43.9-86.4 54.7-134.3 3.6-15.8 10-31 13.9-46.7 6.3-25.5 9.7-51.4 13-77.5 4.2-32.8 4.5-65.7 3.6-98.5-.7-27.8-4-55.7-7.9-83.3-9.4-66.3-29.1-129.8-57.6-190.3-39.1-82.9-92.6-155.3-160.5-216.9-53.6-48.6-113.5-87.9-179.6-117.7-90.5-40.8-185.4-61-284.5-61.4-42.3-.2-84.3 3.9-126 11.6-59.3 10.8-116.1 28.9-170.5 54.6-80.3 38-150.9 89.6-211.4 154.8-41 44.2-75.7 92.9-103.9 146.2-42 79.3-67.1 163.8-77.6 252.8-3.4 28.4-4 57.1-3.6 85.7.2 12-.1 24 1.1 35.9 1.9 19.4 5.1 38.7 7.4 58.1 3.1 25.4 8.7 50.2 15.5 74.8 12 43.7 28 86 48.3 126.6 18.7 37.3 40.3 72.8 65.2 106.3 23.8 32.1 50.1 62.2 79.6 89.2 15.4 14.2 31.5 27.7 47.7 40.9 12.4 10.1 25.5 19.1 38.3 28.7.5 10.6-.5 12.3 10.4 15.6 1 10.5 1.8 21 3.2 31.4.3 2.6 1.6 6.1 3.7 7.4 7.2 4.4 14.9 8.1 24.2 12.9 0 1 .1 4.3 0 7.5-.3 9.3 1 11.8 10.2 14.2 4.7 1.2 9.9.8 14.8 1 4.3.2 8.7-.1 12.9.5 9.9 1.5 19.7 3.2 29.6-1.6 1.6 3.5 2.8 6.5 4.3 9.4 2.5 4.7 6.5 6.5 11.7 5.7 8.3-1.3 16.6-3.4 25-3.8 11.2-.6 17.4-7.1 22.5-15.8 2.3-4 4.3-8.1 6.1-11.4 7.4-1.5 14-2.3 20.3-4.3 20.6-6.4 39.1-15.6 46.4-38.2 1.5-4.7 2.4-9.6 3.5-14 7.5-6.7 12.3.8 18 3 5.3 2 4.1 6.7 4.4 11 1 16.7 5.4 32.1 18.8 43.5 2.6 2.2 3.6 4.3 3.1 7.7-1.3 8.6-.5 17.3 3.4 25 3.9 7.7 8.7 14.8 13.6 21.9 1.8 2.6 4.6 5.4 7.4 6.1 2.5.6 5.7-1.5 7.4-2 8.6 7.8 16.5 15.3 24.9 22.3 2 1.6 5.6 2.5 8.2 2 7.7-1.4 15.3-3.5 23.6-5.6 1 1.1 2.6 2.7 4.1 4.5 7.7 8.6 12.5 9.4 22.4 2.9 3.3-2.2 6.1-5.1 9.1-7.7 2.2-2 4-4.7 6.5-5.9 10.6-5.1 19.8-11.7 24.9-22.7 2.1 1.2 3.5 2.1 5 2.7 8.5 3.8 11.1 3.4 17.6-3.1 4.2-4.2 8-8.9 12.3-13.1 11-10.7 12.2-23.7 7.9-37.4-1.7-5.5 0-8.6 2.9-12.5 4.7-6.4 9.7-12.8 13.2-19.8 4.2-8.5 6.9-17.8 10.7-27.7 3.5 1.5 7.3 3.1 10.9 4.7 2.5 19.5 11 34.5 28.3 43.8 13.1 7 27 11.1 41.5 12.9 3 5.2 5.7 10.6 8.9 15.6 4.5 7.2 10.8 11.3 19.6 12 7.6.6 15 2.1 22.6 3.1 9.3 1.2 11.7-.1 15.8-8.4 1-2 1.9-4.2 2.8-6.2 10.3 3.7 12.5 3.7 23.8 2.6 7.9-.8 15.8-.7 23.7-1.5 4.8-.5 9.6-1.9 14.4-3.1 4.6-1.2 6.2-4.6 6.1-9-.1-4.3 0-8.5 0-12.7 6.3-1.2 19.5-6.9 23.9-10.9 2-1.8 3.7-4.8 4-7.4 1.3-10.5 2-21.1 2.9-31.7 9.4-2.6 9.6-4 9.9-16zm281.1-1376.7c-55.1-45.5-112.7-85-175-117.9-4.4 12.5-10.8 177.6-8 195.5 5.4 2.8 10.8 2.1 16.2-.2 14.9-6.6 29.8-13 44.5-19.8 25.3-11.6 50.5-23.4 75.7-35.3 15.1-7 30-14.3 46.6-22.3zM877.4 179.3c1.2 1.7 1.9 2.8 2.8 3.8 11.3 12.1 22.9 24 34.1 36.2 27.6 30.1 55.3 60.1 82.4 90.6 6.6 7.4 13 10.7 23.5 5.8 21.2-58.4 42.7-117.6 64.3-177.1-29.9-3.5-176.3 25.6-207.1 40.7zm-180 270c3-12.9-2.8-25.1-1.7-38 .7-8.3-1.2-17.1 0-25.7.7-5.2.5-10.6 0-15.8-1.7-15.6-3.1-31.2-3.5-46.9-.4-14.3-.4-28.6-.6-43-.1-7 .8-15.2-4.2-22.5-60.8 33.3-117.9 71.1-171.8 116.7 11 5.5 20.3 10.4 29.8 14.8 10.8 5 21.8 9.5 32.6 14.5 12.7 5.8 25.1 12.1 37.8 17.9 19.5 9 39.4 17.5 58.6 27.1 8.2 4 15.4 5.5 23 .9zm587.5-312.5c21.9 59.6 43.3 117.5 64.4 174.9 5.3 1.1 9.8 1.9 15.2 3 4-4.1 8.4-8.5 12.6-13 4.5-4.8 9-9.7 13.5-14.6 9.8-10.8 19.5-21.5 29.3-32.3 4.2-4.7 8.4-9.4 12.7-14 8.8-9.4 17.7-18.7 26.4-28.1 6.5-7 12.7-14.3 19.2-21.3 3.9-4.2 8.2-8.2 13.8-13.7-68.3-20.9-135.9-34.4-207.1-40.9zm902.9 744.3c-.9 0-2.2-.3-2.7.2-10.3 8.7-20.7 17.3-30.7 26.3-8.6 7.7-16.9 15.9-25.2 24-4.5 4.3-8.8 8.8-13.2 13.2-2.7 2.7-4.9 6.3-8.1 8.2-12.1 7.2-21.4 17.3-31 27.3-7.8 8.1-15.6 16.2-24.6 22.9-5 3.7-5.9 10.4-1.3 13.3 5.9 3.6 11.8 7.5 18.1 10 20.7 8 41.6 15.4 62.5 22.9 22.7 8.2 45.5 16.3 68.3 24.4 8.9 3.2 17.9 6.1 27.1 9.3 1.8-34.2-26.4-178.9-39.2-202zM326.1 1013.9c-12.8-18.7-31.8-30.5-47-46.1-15.3-15.7-31.9-30-48.1-44.8-16-14.7-32-29.3-49.3-45.1-20.4 68.2-33.6 135.6-39.5 206.2 8.7-3.3 15.6-6.1 22.7-8.7 16.2-5.8 32.5-11.3 48.7-17.2 22.7-8.4 45.4-16.7 67.9-25.7 14.7-5.8 30.8-8.2 44.6-18.6zm48.2-496.2C345 547.1 263.8 669.6 261 691.1l176.9 7c8.8.5 13.5-3 13-11.6-.2-3.2-1.2-6.5-2.6-9.3l-74-159.5zm1623.3 2.9c-1.5 1.9-3.3 3.6-4.4 5.7-3 5.7-5.7 11.5-8.5 17.3-4.6 9.4-9.5 18.8-13.9 28.3-5 10.7-9.7 21.7-14.7 32.5-4.1 8.8-8 17.8-12.8 26.3-8.2 14.5-10.5 31.6-20.7 45.2-.5.7-.5 1.9-.6 2.9-.2 9.7 7.1 18 16.9 18.2 12.9.3 25.9.5 38.8-.3 18.8-1.2 37.6-3.2 56.5-3.3 24.2-.1 48.5-1.8 72.7-2.8.9 0 1.7-.7 2.5-1.1-7.9-26.5-90.6-151.7-111.8-168.9zm227.6 768.5c-58.4 19.9-116 40.4-172.1 62.3-2.2 8.3-.7 14.3 4.6 19.3 2.2 2 4 4.4 6.2 6.4 17 15.4 34 30.7 51 46.1 19.1 17.4 38.2 34.9 57.3 52.3 4.2 3.9 8.5 7.8 13.7 12.6 20.5-65.8 33.8-131.2 39.3-199zm-1847.8 557c5.3-12.4 9.8-23 14.4-33.5 2.3-5.3 4.7-10.6 7.3-15.8 4.6-9.1 10.4-17.7 13.8-27.2 5.6-15.5 13.1-30 20.7-44.6 6.1-11.7 10.8-24.1 15.9-36.3 3.9-9.5-1.6-20.9-14.1-20.1-6.3.4-12.6.1-19 .3-22.2.8-44.4 1.7-66.6 2.4-5.3.2-10.7-.1-16 .3-13.2.9-26.4 2.3-39.7 3-9.9.5-19.8.1-31.8.1 32.9 62 71.3 117.8 115.1 171.4zm1545.7-177.6c-1.1 2.2-1.6 3.4-2.3 4.5-3.7 5.7-5.4 10.9 0 17.1 3.2 3.7 4.8 9 6.9 13.7 2.3 5.2 3.4 11.4 6.9 15.5 4.7 5.5 5.5 12.3 8.7 18.3 4 7.4 5.7 16.1 9.4 23.7 5.4 10.9 12.3 21.2 17.7 32.1 4.5 9.3 7.3 19.4 11.6 28.9 3.3 7.3 4.2 15.9 11.6 22.3 43.4-51.9 80.5-107.3 113.4-168.4-62.9-2.7-123.5-5.2-183.9-7.7zm-843.3 552c-.8-3.6-1.1-6.7-2.1-9.4-3.4-9.3-7-18.5-10.5-27.8-10.2-26.9-20.3-53.9-30.5-80.8-1.9-4.9-4.1-9.8-5.8-14.7-3.8-10.5-6.8-21.4-11.3-31.5-1.6-3.5-6.7-6.5-10.7-7.5-3.7-1-6.8 2.3-9.5 5.9-4.9 6.5-10.7 12.4-16.4 18.4-8.5 8.8-17.4 17.3-25.7 26.3-11.1 11.9-21.7 24.3-32.6 36.4-2.9 3.2-6.9 5.5-9.2 9-8 11.9-17.6 22.2-28.6 31.4-1.5 1.2-2.1 3.6-3.1 5.5 30 13.2 159 38.9 196 38.8zm-896.2-734.1c3.4-3.6 5.4-5.6 7.4-7.6 7.6-7.8 14.6-16.5 23.1-23.3 12.9-10.3 25.5-20.9 37-32.8 6.1-6.4 12.3-12.9 19-18.7 10-8.7 21-16.2 30.6-25.2 7.5-7 12.4-16.2 13.9-28.3-56.1-22.3-113.1-41.4-171.2-63.9 6.5 68.5 19.8 133.5 40.2 199.8zm1493.8 427.7c-4.4 2-7.6 4.9-7.7 9.7-.1 5.2.3 10.5.7 15.7.8 10 2.2 20 2.6 30 .5 14.4-.7 29 .6 43.3.8 9.3 6 18.2 1 27.6 3.4 10.4.4 21.3 2.3 31.8.8 4.8 1.5 10 .3 14.5-1.5 5.6-.2 10.1 2.1 15.7 58.8-31.5 113.8-67.7 166.2-111-56.8-26-112.1-51.5-168.1-77.3zM1355 2043.2c-11.8 30.3-22.7 59.5-33.2 88.8-10.6 29.4-21.2 58.8-31.8 88.4 31.2.9 169.9-25.5 195.2-39.4-7-7.8-13.7-15.5-20.6-22.9-8.1-8.7-16.7-17.1-24.7-25.9-8.9-9.8-17.2-20.2-26.2-30-11.6-12.7-23.6-25.2-35.6-37.5-5-5.2-9-11.5-16.4-14.2-2.2-.8-3.5-3.7-6.7-7.3zm-830.6-51.5c52 42.5 106.1 79 165 110 1-4.6 2.3-7.8 2.4-11 .4-10.5.2-20.9.5-31.4.2-5.9 1.3-11.8 1.5-17.8.3-7.9-.1-15.8.1-23.7.4-17.5.9-35 1.6-52.4.4-8.9 1.5-17.7 1.7-26.5.1-4.8-.1-10-1.8-14.4-2.2-5.7-9.4-7.3-16.5-4.1-14.8 6.7-29.4 13.8-44.2 20.5-15.6 7.2-31.4 14-47 21.2-12 5.6-23.8 11.6-35.8 17.3-8.6 4-17.3 7.7-27.5 12.3z"/>
      <path id="XMLID_174_" class="st2" d="M1259 1618c-2.8-.2-5.5-.5-8.9-.8 4-13.4 13.3-24.7 11.2-39.3-19-5.7-33.2 2.6-47.2 13.6 5.9 7.3 10.1 14.2 10.9 23.5.9 11-7.7 15.4-13.2 22.4 8.7 13.4 20.4 20.3 37.2 21.4.2-4.9 1.3-9 .3-12.5-3.1-11.8 1.8-20.5 9.3-28.6 8.8-5.2 17.7-10.4 27-15.9-1.5-2-3.4-4.5-5.8-7.7-7.4 7.2-14.3 13.7-20.9 20.4-.5.6 0 2.3.1 3.5zm130.9 38.9c1.4 3.4 2.3 5.5 3.2 7.5 8.8 19.2 8.7 39.4 7.8 59.9-.3 7.3-2.8 15 1.5 22.3 9.1 15.3 31 22 48.2 14.6 15.7-6.7 28.1-17.5 38.3-30.9 6.8-9.1 9.5-20.1 7.6-30.9-1.6-8.6-6.1-16.8-9.9-24.9-3.2-6.7-7.4-13-11-19.4-28.9 11.8-50.4 12.3-85.7 1.8zm-495.3-1.8c-7.6 12.6-14.6 24.8-18.8 38.7-3.7 12.3-2.8 23.9 4.1 34.3 9 13.5 20.9 23.9 35.7 31 13.6 6.6 27 6.2 40.2-.5 8.9-4.5 14.1-11.7 13.7-22.2-.4-11.1-1.7-22.3-1.1-33.4.7-14.2 2.7-28.4 9.7-41.3.6-1.2.7-2.7 1.2-4.6-36.2 10.8-56.8 9.3-84.7-2zm219.4 87c2 8.4 3.6 16.2 5.8 23.8 1.7 6 4 11.9 6.4 17.7 5.4 13 15.3 21.2 28.9 23.4 10.7 1.7 21.8 1.8 32.7 1.2 12.9-.7 24.5-5.6 33.3-15.7 5.6-6.5 9.5-14 9.9-22.4.3-8.2-3.7-15.1-10.6-20.3-2.9-2.2-5.3-5-7.8-7.7-13.7-15.1-26.1-31-31-51.4-.3-1.1-1.2-2-2.3-3.6-14.9 26.5-35.7 45-65.3 55zm-130.4-186.8c-3.5-1.5-6.2-3.4-9.1-3.9-11-2-20.1 2-27.9 9.7-2.5 2.5-5.6 5.1-8.8 5.9-8.5 2.2-14.6 7.1-20 13.7-10.6 12.9-17.7 28.7-32.8 38.1-5.2 3.2-6.3 13.4-2.8 17.1 9.2 9.7 19.1 18.5 33.1 20.8 20 3.3 39.8 3 59-4.1 10.8-4 21.1-9.2 29.6-19.9-4.1-.8-7.1-.9-9.7-2-3.5-1.5-8.3-3-9.7-5.9-6.3-12.4-12.9-24.7-14.3-38.9-.8-7.5-.3-14.4 5.7-20.2 2.6-2.5 4.6-6.1 7.7-10.4zm131.6 54.3c-1-.3-1.7-.6-2.3-.6-1 0-2.2-.1-2.9.4-9.2 6.2-17.9 13.1-17.8 25.7 0 5.6-1.5 10.2-4.7 14.8-4 5.9-5 12.6-4.8 19.9.4 16.9 6.5 33.7.4 50.8-2 5.5 6.2 16.5 11.8 16.1 8.8-.8 17.6.9 26.3-2.9 25.3-10.8 43.4-28.7 55-53.3 3.8-8 7.3-16.3 5.2-26.2-2.4 1.1-4.6 1.9-6.5 3.1-6.2 4.1-12.1 4.3-18.6.2-3.9-2.5-8.6-3.6-12.7-5.7-16.2-8.4-30-18.4-27.9-39.7.2-.7-.2-1.3-.5-2.6zm249.9 23.7c5.7 4.7 9.2 8.1 13.3 10.8 13.6 9 28.7 13.8 44.9 14.5 22.2.9 44 .1 60.6-18.6 7.8-8.7 8.3-17.8-1.8-23.7-7.1-4.1-11.1-10.2-15.6-16.3-5.7-7.8-11.4-15.5-17.5-22.9-2.5-3-5.8-6.2-9.3-7.1-8.8-2.2-15.3-7.5-21.7-13.1-1.7-1.5-3.7-3.4-5.8-3.7-5.8-1-11.7-1.7-17.6-1.5-2.4.1-4.8 2.5-7.7 4.2 3.4 4.6 5.9 8.5 8.9 12 3.5 4 4.5 8.1 4.4 13.6-.1 16.4-7.6 30.1-14.7 43.9-1.5 2.9-6.3 4.3-9.8 5.8-2.7.9-5.6 1-10.6 2.1zm-54.9 66c16.4 38.9 46.8 52.5 85.2 45.8.2-7-.2-14.4.8-21.5 2.6-16.8.2-33.1-4.9-48.9-2.7-8.3-6.9-16.7-12.5-23.4-5.4-6.4-13.3-10.6-20-15.7-6.5 1.7-12.8 3.4-20.3 5.4 3.3 25.4-9.5 43.3-28.3 58.3zM976 1746.8c7.7 0 15 .4 22.3-.1 13.5-1 26.2-4.3 36.5-13.8 1.9-1.7 4-3.9 4.5-6.2 2-10.4 7.1-19.1 14.2-27.8-3.6-5.6-6.9-11.2-10.6-16.6-6.9-10-12.7-20.2-11.4-33 .3-2.8-.4-5.8-.6-8.6-7.4-1.9-14-3.6-20.4-5.3-4 3.5-7.3 7.5-11.6 9.8-12.3 6.6-16.9 18.5-20.5 30.4-7 23-7.6 46.3-2.4 71.2zm260.9 10.9c8.7-9 17-17.1 24.5-25.8 4.6-5.3 8-11.5 4.9-19.2-.8-2.1-.9-4.6-.6-6.9.7-6.7-1.3-12-5.7-17.3-3.5-4.2-7.1-9.6-7.7-14.8-.7-7.2-4.7-8.6-10.2-9.8-13.4-3-24.9-9.1-33-20.6-.5-.7-1.5-1.1-2.1-1.5-4.5 2.1-8.6 4.2-12.9 5.9-4.2 1.7-6.3 4-6.2 8.9.1 4.2-1.4 8.4-2.1 12.7-.5 3.2-1.8 6.7-1.1 9.7 1.9 8.4 3.9 16.9 7.4 24.7 9.3 21.4 26.2 37 44.8 54zm73.8-154.5c-.5.1-1.1.2-1.6.2-.8 3.2-1.8 6.3-2.3 9.5-1.5 11 7.9 21.5 19 21.8 10 .3 19.9.2 29.4-3.5 3.4-1.3 6.9-4 10.2-3.7 13 .8 18-7.3 21.7-17.5.3-.9.7-1.9 1-2.8 2.4-8.5 5.1-17 7.1-25.6.5-2.3-.2-5.5-1.6-7.5-3.1-4.7-6.7-9-10.4-13.2-1.4-1.6-3.8-3.3-5.8-3.4-10.6 0-21.2-.1-31.8 1-3.9.4-8 3.2-11.2 5.9-4.3 3.6-7.7 8.2-11.6 12.3-4.8 5.1-7 11-6.8 18 .1 4.7-.3 9.5-.5 14.2-.7.1-1.5.1-2.2.2-.9-1.9-1.7-3.9-2.6-5.9zm-254.3 6.6c-3.9-4.3-2.2-8.8-2.4-12.8-.3-5.7-.4-11.2-3.8-16.2-10.2-15.2-22.9-25.8-42.7-23.5h-1c-11.6-.7-21.1 2.2-27.7 13-3.2 5.2-4.5 9.7-3.6 15.7 1.9 12.4 7.4 23.3 12.6 34.3 1.3 2.7 5.3 4.8 8.4 5.9 6.2 2.1 13 2.6 19.2 4.9 8.9 3.4 18 3.5 27.4 3.8 8.2.3 12.9-3.4 17.2-9.5 4.9-6.8 3.5-13.8 1.3-20.9-.1-.4-1-.5-1.7-.9-.3.9-.6 1.8-1 2.6-.6 1.2-1.2 2.1-2.2 3.6zm151-9.2c-5.4.8-6.8-2.7-8.8-5.1-7.6-9.2-16.8-14.9-29.2-14.2-1.3.1-2.7-.1-4-.4-8.5-1.9-15.7.8-22 6.3-5 4.3-10 8.7-14.9 13.1-9 7.9-8.9 25.7-.4 34.4 8.9 9.1 20.4 13.2 31.4 18.6 4.7 2.3 8.5 2.1 13-.4 6-3.4 12.3-6.5 18.7-9.2 10.1-4.2 18-11.1 25.2-18.9 2-2.2 3.1-5.7 3.5-8.8 1.3-10-5.4-15.8-12.1-21.4-.3-.3-1-.1-1.6-.2.3 1.8.7 3.7 1.2 6.2zm94.1 7c-12.6-.3-23.1 3.3-33 9-7.7 4.4-12.2 11.2-14.4 19.5-4.4 16.7-.1 32.1 8.1 46.7 2.8 5 7 7.7 12.9 8 10.2.4 20.5.7 30.7 1.6 4.3.4 7-1.1 9.4-4.1 4.5-5.8 9.6-11.2 12.9-17.6 3.6-6.9 8.4-13.6 7.8-22.1-.5-8-4.9-11.2-12.9-10-3 .4-7 .3-9.3-1.4-6.5-4.8-11.5-11-11.8-19.8 0-3-.2-6-.4-9.8zm124.2 196.7c7.2 6.8 14 14.1 21.7 20.1 5.1 4 12.1 5.5 17.5 9.1 9.2 6.2 18.7 5.9 28.5 3.2 12.5-3.4 16.3-9.7 15.2-22.7-1-11.8-3.9-22.7-11.4-32.2-2.4-3.1-3.9-6.9-6-10.3-4.2-7-8.4-14.1-12.7-21.3-7.8 4.9-14.9 9.1-21.7 13.6-3.9 2.5-7.5 5.5-11.7 8.6-.9-.6-2.9-2.8-5.1-3.2-8.7-1.4-17.5-2.1-25.8-3 3.4 9 6.8 18.2 10.7 28.5 9.2 4.7 13.5 2.9 16.7-8.2.9-3 1.8-6 2.9-9.8 6.1 15.8-.4 24.7-18.8 27.6zm-456-52c-5 10.2-9.9 20.3-15 30.3-5.1 10.1-2.6 19.3 2.8 28.2 3.9 6.4 9.4 9.1 16.8 7.8 4.2-.7 8.6-1 12.8-1.9 12.8-2.7 25.1-7.4 35.1-15.7 14.6-12.1 19.4-28.6 16.9-47.2-.6-4.7-1.8-9.3-2.8-14.4-20.8 13.4-42.8 13.7-66.6 12.9zm363.8-13.6c-1.1 6.8-2.2 11.9-2.8 17.1-2.7 22 8.7 42.6 26.6 51.3 12.8 6.2 25.9 10.2 39.9 11.4 3.6.3 8.2-.8 11.1-3 9.1-6.8 12.4-21.1 7.5-31.7-4.8-10.5-10.3-20.8-15.5-31.4-23.2.6-46 1.4-66.8-13.7zM891 1750.8c-1.7 2.8-3.4 5.5-5 8.3-4.5 7.7-8.4 16-13.7 23.2-7.3 9.8-10 20.6-11.1 32.4-1 11.6 2.9 19.3 12.8 21.5 10.3 2.3 20.9 4.7 30.7-2.3 2.4-1.7 5.4-2.6 8.1-3.7 13.4-5.4 21.1-16.9 31.6-27.2-15.8-1.3-20.8-5.6-22.3-18.1-.4-3.3.4-6.7-.1-10-.4-2.8-1.2-6.6-3.1-7.8-8.8-5.8-18.1-10.8-27.9-16.3zm283.5 63.9c3.3 16.4 6.8 30.9 8.9 45.6 2 14.1 11 23 20.7 31.7 3 2.7 6.2 3 10.1 1.1 11.5-5.6 22.9-11 26.2-25.1.7-2.8 2.9-5.3 3.8-8.1 1.6-5 2.8-10.1 3.9-15.3.7-3.2 1.2-6.5 1.3-9.8.2-4.7.1-9.4.1-14.8-13.1 10.6-17.9 8.8-28.7.2-2.3-1.9-4.9-3.7-6.5-6.1-3.2-4.7-6.9-5.3-12-3.3-3.7 1.4-7.7 2.1-11.7 2.6-5 .7-9.9.8-16.1 1.3zm61.3-48.7c2 8.5 4.2 18.2 6.6 27.8 3.4 13.6 11.6 21.7 25.9 24 4.8.8 8.4-.1 11.7-3.3 13.7-13.3 22.6-29.4 27.2-47.7 2.2-8.4-2.8-15.5-11.4-17.6-7.7-1.8-14-5.8-18.7-12.2-2-2.7-4.3-5.3-5.7-7-11.8 12-22.9 23.2-35.6 36zm-126.5 70.1c1.7 5.4 3.1 10.8 4.9 16 6.5 18.4 14.2 35.9 31.5 47.2 5.8 3.8 20.4 4.1 24.8-1.2 6.5-8.1 11.6-16.8 9.2-28.2-2.9-13.9-4.6-28-7.2-42-.8-4.4-2.9-8.6-4.5-13-36.9 26.2-37.4 18.5-58.7 21.2zm432.2-113.7c-16.3 17-35.8 23.3-59.8 22.1 9.3 15.7 17.9 29.4 25.7 43.5 6.2 11.4 14.1 19.9 27.7 21.4.9.1 1.8.6 2.9.9 5.8-3.3 11.5-6.6 16.3-9.3 9.3-28.8-.8-53.3-12.8-78.6zm-709.3 88c3.1-1.1 5.6-2.4 8.2-2.7 8-.9 13.2-5.3 17.2-12 4.6-7.7 9.8-15 14.3-22.7 5.2-8.8 9.9-17.8 15.6-28.1-23.4.3-43.1-5.6-59.1-22.7-11.9 25.8-22.4 50.4-12.4 78.9 4.9 2.8 10.3 5.9 16.2 9.3zm69.9-218.3c-15.3-4.6-21-5.8-32.4-2.6-20.4 5.7-34 19.2-31 43 1.8 13.7 20.4 34.2 33.9 37.8 4.1 1.1 7.2 0 9.3-3.7 2.8-5.2 5.6-10.4 8.5-15.7-3-2.8-5.1-5.5-7.8-7.3-5.8-3.7-7.1-8.7-7.2-15.2 0-9.1 5.7-14.2 12-18.2 7.2-4.6 9.9-11.8 14.7-18.1zm176.4 95.3c-9 7.2-17 12.3-23.2 18.9-19.7 21-13.3 50.6 13.9 61.5 9.4 3.8 19 3.6 28.5 2.6 13.8-1.5 16-5.3 13.2-19.3-.1-.7-.4-1.3-.6-1.9-1.8-8.7-2.4-9.3-10.9-8.2-7.3 1-12.7-1.2-17.3-7.2-4.8-6.2-5.6-12.6-3-19.6 3-8.2.7-16.2-.6-26.8zm401.1-36.6c2.8 5.2 5.1 9.6 7.6 13.9 3.8 6.6 6.3 7.6 12.9 4.3 11.8-6 21.8-14.3 27.7-26.3 7.9-16.3 4.4-35.9-12.9-47.2-15.1-9.8-30.4-8.1-47.2-3.4 5.3 6.9 8.3 14 15.6 18.5 7.2 4.4 12 10.6 11 20.6-.5 4.9-1.7 8.1-5.1 11-3 2.7-5.9 5.4-9.6 8.6zm-407.3 124.9c-.8 11.1 1.9 20.9 6 30.3 5.1 11.6 14 19.5 26.2 22.8 13.6 3.6 15 3.6 29.1-.1 9.2-2.4 17.9-6.5 24.6-15.5-25.6-3.5-36.6-21-42.8-42.1-6.7 1.5-12.9 4.5-18.7 3.8-7.9-.8-15.5.3-24.4.8zm-230.8-122.4c-15.9 12.6-23.3 40.5-14.2 56.7 10.3 18.4 33.5 31.4 52 27.2-15.1-19.5-12.7-40.1-2.7-61-16.1-2.4-24.9-13.8-35.1-22.9zm651.8 23c10.6 21.4 12.4 41.9-3 61.4 25.7 3.3 46.1-14.3 53.4-29.9 7.7-16.4.8-41-15-54.8-10.1 9.4-19.2 20.4-35.4 23.3zm-443.8-105.5c3.8-7.3 1-12.8-2.3-17.6-11.3-16.2-26-27.5-46.3-29.7-12-1.3-15-1.3-15.2 11.5 0 2.6-1.4 5.1-1.7 7.8-.9 7 1.4 9.8 8.5 10 9 .2 18 .2 27 0 7.7-.1 14.2 2.5 19.6 8.1 3.3 3.1 6.7 6.2 10.4 9.9zm333-45.9c-3.7-.6-7.4-2.2-10.7-1.6-7.4 1.3-15 2.8-21.8 5.8-12.1 5.3-21.5 14.4-28.2 25.7-2.6 4.4-5.9 9.6-1 15.3 2.8-2.6 5.4-4.6 7.6-7.1 6.9-7.8 15.4-10.9 25.7-10.4 7.6.4 15.3.2 22.9.1 7.4-.1 9.7-2.6 8.8-9.6-.7-5.6-2-11-3.3-18.2zm-313.9 82.4c-.3 3.4-.8 6-.7 8.6.5 8.1-3.9 13.9-9.1 19.1-1.9 1.9-5.7 4.1-7.6 3.4-5.9-2.3-10 1.3-14.6 2.4-1.8 18.8 2.6 31.1 14.6 40.9 2.8-6.5 6.4-12.7 8.1-19.3 3.9-15.3 13.8-26.1 24.9-36.4 3.8-3.6 7.1-7.8 10.9-12-8.2-5.4-16.8-5.6-26.5-6.7zm140.1-19.1c4.6-1.8 5.7-4.4 4.1-9.3-5.9-18-11.3-36.1-16.8-54.2-3.6-11.7-7-23.5-10.4-35.3-1.4-4.8-3.9-5.7-8.9-2.2 5.6 14.2 5.1 30.2 13.4 44.9-4.1 5.4-7.9 11.8-12.9 16.9-4.9 5-11.2 8.6-18 13.7 12.9.2 23.5-.9 29.9-12.1.5-.9 1-2 1.8-2.4 1.5-.7 3.3-1.1 6.4-2-1.3 2.9-1.6 4.8-2.7 5.6-3.6 2.8-4 6.6-3.9 10.7.1 5.5 0 11 0 17.8 5.4 2.3 11.7 5.1 18 7.9zm68.8-20.6c1 .1 2 .2 3 .2.9 3 1.1 6.5 2.9 8.8 5.8 7.3 12.2 14 13.7 23.8.4 2.8 5 3.2 6.3.8 3.6-6.6 6.8-13.5 10.3-20.6-9.6-5.9-18.6-11.4-27.6-17-16.8-10.6-33.7-21.3-50.4-32.1-3.9-2.5-7.2-3.7-9.6 2.7 3.9 2.7 7.7 5.9 12 8.3 8.5 4.8 14.3 13.9 25 15.3 1.2.2 2.7 2.9 3.1 4.7 2.2 10.2 2.7 20.4-1 30.4-1 2.7-1.7 5.5-2.7 8.9 15.1-7.3 16.3-20.2 15-34.2zm-101.3 9.2c-3.3-7.1-6.6-9.3-13.6-9.4-8-.2-17.7 4.8-24.4-4.2-.5-.7-2.5-.4-3.8-.3-9.1.7-17.5 3.3-24.8 9.2-11.8 9.5-12 10.7-3.5 23.2.9 1.4 1.9 2.7 2.9 4 4.7 5.7 6.1 5.8 12 .8 7.6-6.4 14.8-13.4 22.7-19.3 6.5-4.9 14-7.3 22.4-5 2.9.6 5.9.5 10.1 1zm104.4 244.6c-8.8 4.9-17.3-.2-26.7-.9.7 16.6 1.3 32.5-7.1 46.7 9.8 8.4 11.7 8.4 19.9-.3 3.2-3.4 6-7.1 9.2-10.4 9.8-10.2 13.1-21.2 4.7-35.1zM1143.8 1534c-2.6-6.8-6.1-4.7-9.7-2.4-20.2 12.8-40.3 25.6-60.5 38.4-5.6 3.5-11.2 6.8-17.5 10.6 3.6 7.1 6.8 13.6 10.2 19.9 1.8 3.3 6.1 3.2 6.5-.2 1.7-13.2 14.7-19.9 16.7-32.7.6.1 1.3.1 1.9.2.6 3.5 1.3 7 2 11 6.1-3.6 9.6-7.8 10-14.5.2-3.7 1.4-7.3 6.5-7 1.2.1 2.6-.7 3.6-1.4 10.1-7.2 20-14.4 30.3-21.9zm315.6 303.3c-16.2-6.4-26.3-18.9-37.3-29.7-6.5 6.7-12.5 13-18.8 19.5 6.8 16.1 11.9 18.2 25.2 20.8 6.8 1.3 13.8 1.7 20.7 1.9 2.2.1 5.1-1.3 6.5-3.1 1.8-2.1 2.2-5.3 3.7-9.4zm-510.1-29.4c-12.8 10.7-24.9 20.9-37.7 31.5 0-.3 0 .7.2 1.6 2.3 8.8 3.3 9.6 12.2 8.5 6.3-.7 12.5-1.7 18.8-2.5 14-1.8 20.7-8 23.8-22.6-9.2-1.9-12.3-10.2-17.3-16.5zm350.4-112.7c-.6 4.7-1.3 6.9-1 9.1 1.4 12.4 2.3 25 4.9 37.2 2.4 10.9 10.8 16.6 21.7 18.9.7-7.2 1.5-13.8 2.1-20.3.4-3.8-.5-6.9-3.4-9.9-8.7-8.8-15.4-18.9-20.2-30.3-.4-1.1-1.6-1.9-4.1-4.7zm-2.5 47.8c-.7-7.8-1.6-15.7-1.9-23.5-.2-5.5.4-11 .6-16.6.2-4.1-1.8-6.2-5.9-6.4-5.9-.3-11.9-.7-17.7-1-7.4 17.6 6.5 44 24.9 47.5zm-210.5-111c-7.8 6.1-14.1 12.3-17.8 20.4-4.3 9.3-7.7 19-11.4 28.6-1.8 4.6-2.7 9.3.6 14.9 7.3-5.2 14-10 19.3-13.8.6-9.7.9-17.9 1.8-26 .8-8.1 8.9-14 7.5-24.1zm-141-79.9c-9.8 2.1-18.2 2.8-25.7 5.7-10.1 4-19.6 9.5-29.2 14.6-4 2.1-8.1 4.5-8.2 10.3 4.8.9 9.3 1.6 13.8 2.5 7.2 1.5 13-.1 16.9-6.8 4.9-8.5 12.8-13.2 21.8-16.2 4.2-1.5 7.8-3.3 10.6-10.1zm478.6 3.6c3.9 2.3 7.5 5.1 11.7 6.7 7.6 3 14.9 6.4 19 13.7 5.1 9.1 12.6 10.8 21.9 8.6 3.5-.8 7-1.5 12.2-2.5-2.7-3.3-4.2-6.8-6.8-8-18.3-8.4-34.8-22.4-58-18.5zm-497.1 214.6c-1.6 7.7-.1 18.3 3.4 22.8 2.7 3.5 6.2 4.8 10.6 3.7 4-.9 6-3 6.4-7.5.3-3.8 2.2-7.5 3.6-11.2 1.6-4.1 3.4-8.1 5.1-12.2-10.1 1.5-19.2 2.9-29.1 4.4zm317.7 44c-4-10.6-7.6-20-11.4-29.8-3 4-5.4 7.9-8.5 11.3-3.3 3.6-7.1 6.7-12.8 11.9 4.7 3.6 8.7 6.5 12.6 9.5 8.6 6.6 13.6 5.8 20.1-2.9zm-152.1 17.1c-.3 20.3 8.2 35.6 22.6 48.5 1.1-2.6 1.7-5.1 1-7.2-3.9-11.2-8.4-22.2-12.1-33.4-1.7-5.2-4.7-7.5-11.5-7.9zm456.7-122.8c-2 4.2-4.6 7-2.9 11.4 4.5 11.3 8.8 22.7 13.1 34.1 1.3 3.4 3 6 7.9 4-.1-18.1-2.5-35.5-18.1-49.5zm-729.6.6c-13.7 13.2-20.7 36-15.8 49.7 5 .4 5.8-3.8 7.1-7 3.8-9.9 6.9-20.1 11.1-29.8 2.3-5.1 1.6-8.6-2.4-12.9zm36.1 98.1c-5.2 2.7-10.6 3.9-13.3 7.3-3.4 4.1-1.7 10.1-.4 15.2 1.4 5.6 9.5 7.8 16.3 5.4-.9-9-1.7-17.9-2.6-27.9zm658.7.5c-1.4 10.2-2.6 19.1-3.8 28.1 12 .8 16.4-1.4 17.8-10 .6-3.7.6-8.8-1.4-11.3-2.7-3.2-7.7-4.3-12.6-6.8zm-329.4 74.3c-1.6 5-5 9.9-4.2 14 .9 4.3 5.3 8.4 9 11.5 4.1 3.4 11.2-.2 16.1-6.9-6.6-6-13.2-11.9-20.9-18.6zm-106.2-279.5c7.5 2.2 14.8 4.4 22.1 6.6.5-.7 1-1.4 1.4-2.1-3-3.2-6-6.4-8.8-9.8-2.9-3.4-5.6-6.9-8.4-10.4-4.9 4.4-7 9.2-6.3 15.7zM1183 1576c.6 0 1.1 0 1.7-.1.5-3.8.9-7.5 1.5-12.5-3.7 1.6-6 2.5-8.5 3.6 2 3.5 3.6 6.3 5.3 9zm102.2 11.2c-.6.4-1.3.9-1.9 1.3 1.7 2.5 3.4 5 5.1 7.6.7-.5 1.3-.9 2-1.4-1.8-2.5-3.5-5-5.2-7.5z"/>
      <path id="XMLID_173_" class="st2" d="M1854.7 373.9c-16.6 8-31.5 15.2-46.5 22.3-25.2 11.8-50.4 23.6-75.7 35.3-14.8 6.8-29.7 13.2-44.5 19.8-5.4 2.4-10.8 3.1-16.2.2-2.9-17.8 3.6-182.9 8-195.5 62.2 32.9 119.8 72.4 174.9 117.9z"/>
      <path id="XMLID_172_" class="st2" d="M877.4 179.3c30.8-15.1 177.2-44.2 207-40.7-21.6 59.5-43.1 118.7-64.3 177.1-10.4 4.9-16.8 1.7-23.5-5.8-27.2-30.5-54.8-60.5-82.4-90.6-11.2-12.3-22.7-24.2-34.1-36.3-.9-.9-1.5-2.1-2.7-3.7z"/>
      <path id="XMLID_171_" class="st2" d="M697.4 449.3c-7.6 4.6-14.8 3.1-22.9-1-19.3-9.6-39.1-18-58.6-27.1-12.6-5.9-25.1-12.1-37.8-17.9-10.8-5-21.9-9.4-32.6-14.5-9.5-4.4-18.8-9.3-29.8-14.8 53.9-45.6 111-83.3 171.8-116.7 4.9 7.3 4.1 15.4 4.2 22.5.2 14.3.3 28.6.6 43 .4 15.8 1.8 31.3 3.5 46.9.6 5.2.7 10.6 0 15.8-1.1 8.7.7 17.4 0 25.7-1.2 13 4.6 25.2 1.6 38.1z"/>
      <path id="XMLID_170_" class="st2" d="M1284.9 136.8c71.2 6.5 138.8 20 207.1 40.9-5.6 5.6-9.9 9.5-13.8 13.7-6.5 7-12.7 14.3-19.2 21.3-8.7 9.4-17.7 18.7-26.4 28.1-4.3 4.6-8.5 9.3-12.7 14-9.8 10.8-19.5 21.6-29.3 32.3-4.5 4.9-8.9 9.8-13.5 14.6-4.3 4.5-8.7 9-12.6 13-5.4-1.1-9.8-2-15.2-3-21.1-57.4-42.5-115.3-64.4-174.9z"/>
      <path id="XMLID_169_" class="st2" d="M2187.8 881.1c12.8 23.1 41 167.9 39.3 201.9-9.2-3.1-18.2-6.1-27.1-9.3-22.8-8.1-45.5-16.2-68.3-24.4-20.9-7.5-41.8-14.9-62.5-22.9-6.4-2.5-12.3-6.4-18.1-10-4.6-2.8-3.8-9.5 1.3-13.3 9.1-6.7 16.8-14.8 24.6-22.9 9.6-10 18.9-20.1 31-27.3 3.2-1.9 5.4-5.5 8.1-8.2 4.4-4.4 8.7-8.9 13.2-13.2 8.3-8.1 16.6-16.2 25.2-24 10-9 20.4-17.6 30.7-26.3.5-.4 1.7-.1 2.6-.1z"/>
      <path id="XMLID_168_" class="st2" d="M326.1 1013.9c-13.8 10.3-30 12.8-44.6 18.7-22.4 9-45.2 17.3-67.9 25.7-16.1 5.9-32.5 11.4-48.7 17.2-7.1 2.5-14 5.3-22.7 8.7 5.9-70.6 19.1-138 39.5-206.2 17.3 15.8 33.4 30.4 49.3 45.1 16.1 14.8 32.8 29.2 48.1 44.8 15.2 15.6 34.2 27.3 47 46z"/>
      <path id="XMLID_167_" class="st2" d="M261 691.1c2.8-21.5 84-144 113.3-173.3"/>
      <path id="XMLID_166_" class="st2" d="M448.3 677c1.4 2.9 2.4 6.2 2.6 9.3.5 8.6-4.1 12.2-13 11.6"/>
      <path id="XMLID_165_" class="st2" d="M1997.6 520.6c21.2 17.3 103.9 142.4 111.9 168.7-.8.4-1.6 1.1-2.5 1.1-24.2 1.1-48.5 2.7-72.7 2.8-18.9.1-37.7 2-56.5 3.3-12.9.8-25.9.6-38.8.3-9.8-.3-17.1-8.5-16.9-18.2 0-1 0-2.2.6-2.9 10.2-13.6 12.5-30.7 20.7-45.2 4.8-8.5 8.7-17.4 12.8-26.3 5-10.8 9.6-21.7 14.7-32.5 4.5-9.5 9.3-18.8 13.9-28.3 2.8-5.8 5.5-11.6 8.5-17.3 1-1.9 2.8-3.7 4.3-5.5z"/>
      <path id="XMLID_164_" class="st2" d="M2225.2 1289.1c-5.6 67.8-18.8 133.2-39.3 199-5.2-4.8-9.4-8.8-13.7-12.6-19.1-17.4-38.1-34.9-57.3-52.3-16.9-15.4-34-30.7-51-46.1-2.2-2-4.1-4.4-6.2-6.4-5.3-5-6.8-11-4.6-19.3 56.2-21.9 113.7-42.4 172.1-62.3z"/>
      <path id="XMLID_163_" class="st2" d="M377.4 1846.1c-43.8-53.7-82.3-109.5-114.9-171.4 12 0 21.9.4 31.8-.1 13.2-.7 26.4-2.1 39.7-3 5.3-.4 10.7-.1 16-.3 22.2-.8 44.4-1.7 66.6-2.4 6.3-.2 12.7.1 19-.3 12.5-.8 18 10.7 14.1 20.1-5.1 12.2-9.8 24.6-15.9 36.3-7.6 14.6-15.1 29.1-20.7 44.6-3.4 9.5-9.3 18.1-13.8 27.2-2.6 5.2-5 10.5-7.3 15.8-4.8 10.6-9.3 21.2-14.6 33.5z"/>
      <path id="XMLID_162_" class="st2" d="M1923.1 1668.5c60.4 2.5 121 5 183.8 7.6-32.8 61.1-70 116.5-113.4 168.4-7.4-6.4-8.2-15-11.6-22.3-4.3-9.4-7.1-19.6-11.6-28.9-5.3-11-12.2-21.2-17.7-32.1-3.8-7.6-5.4-16.3-9.4-23.7-3.2-5.9-4-12.8-8.7-18.3-3.5-4.1-4.6-10.3-6.9-15.5-2.1-4.7-3.7-9.9-6.9-13.7-5.4-6.2-3.6-11.4 0-17.1.8-1.1 1.3-2.3 2.4-4.4z"/>
      <path id="XMLID_161_" class="st2" d="M1079.8 2220.5c-37 .1-166-25.6-196-39 1-1.9 1.6-4.2 3.1-5.5 11-9.2 20.6-19.5 28.6-31.4 2.4-3.5 6.3-5.9 9.2-9 10.9-12.1 21.6-24.4 32.6-36.4 8.3-9 17.2-17.4 25.7-26.3 5.7-5.9 11.5-11.8 16.4-18.4 2.6-3.5 5.8-6.8 9.5-5.9 4 1.1 9.1 4 10.7 7.5 4.6 10.1 7.6 21 11.3 31.5 1.8 5 4 9.8 5.8 14.7 10.2 26.9 20.3 53.9 30.5 80.8 3.5 9.3 7.1 18.5 10.5 27.8 1 3 1.3 6 2.1 9.6z"/>
      <path id="XMLID_160_" class="st2" d="M314.5 1350.4c-1.5 12.2-6.4 21.3-13.9 28.3"/>
      <path id="XMLID_159_" class="st2" d="M191 1478.8c-2 2-3.9 4.1-7.4 7.6"/>
      <path id="XMLID_158_" class="st2" d="M1677.4 1914.1c56 25.8 111.3 51.3 168.1 77.5-52.4 43.2-107.4 79.5-166.2 111-2.3-5.6-3.7-10.1-2.1-15.7 1.2-4.5.5-9.8-.3-14.5-1.8-10.6 1.1-21.4-2.3-31.8 5-9.5-.2-18.4-1-27.6-1.3-14.3-.1-28.9-.6-43.3-.3-10-1.8-20-2.6-30-.4-5.2-.8-10.5-.7-15.7.1-5 3.3-7.9 7.7-9.9z"/>
      <path id="XMLID_157_" class="st2" d="M1355 2043.2c3.2 3.6 4.5 6.5 6.6 7.3 7.4 2.7 11.3 9.1 16.4 14.2 12 12.3 24 24.8 35.6 37.5 9 9.8 17.3 20.2 26.2 30 8 8.8 16.6 17.2 24.7 25.9 7 7.5 13.7 15.2 20.6 22.9-25.2 13.8-163.9 40.3-195.2 39.4 10.7-29.6 21.2-59 31.8-88.4 10.6-29.3 21.5-58.5 33.3-88.8z"/>
      <path id="XMLID_156_" class="st2" d="M524.4 1991.7c10.2-4.5 18.9-8.2 27.5-12.3 12-5.6 23.8-11.7 35.8-17.3 15.6-7.2 31.4-14.1 47-21.2 14.8-6.8 29.4-13.9 44.2-20.5 7.1-3.2 14.2-1.6 16.5 4.1 1.7 4.4 1.9 9.6 1.8 14.4-.2 8.9-1.3 17.7-1.7 26.5-.7 17.5-1.2 34.9-1.6 52.4-.2 7.9.2 15.8-.1 23.7-.2 5.9-1.3 11.8-1.5 17.8-.3 10.5-.1 20.9-.5 31.4-.1 3.2-1.4 6.4-2.4 11-58.9-31.1-113-67.6-165-110z"/>
      <path id="XMLID_155_" d="M1389.9 1656.9c35.3 10.5 56.8 10 85.5-1.8 3.6 6.3 7.8 12.6 11 19.4 3.8 8.1 8.4 16.2 9.9 24.9 2 10.8-.7 21.9-7.6 30.9-10.1 13.4-22.5 24.2-38.3 30.9-17.2 7.3-39.2.7-48.2-14.6-4.3-7.3-1.8-15-1.5-22.3.9-20.5 1-40.7-7.8-59.9-.7-2-1.6-4.1-3-7.5z"/>
      <path id="XMLID_154_" d="M894.6 1655.1c27.9 11.3 48.5 12.8 84.8 2-.5 1.9-.6 3.4-1.2 4.6-7 12.9-9 27.1-9.7 41.3-.6 11.1.6 22.3 1.1 33.4.4 10.5-4.8 17.7-13.7 22.2-13.2 6.7-26.6 7-40.2.5-14.7-7.1-26.7-17.5-35.7-31-6.9-10.4-7.8-22.1-4.1-34.3 4.1-13.9 11.1-26.1 18.7-38.7z"/>
      <path id="XMLID_153_" d="M1114 1742.1c29.5-10 50.4-28.5 65.3-55 1 1.6 2 2.5 2.3 3.6 4.9 20.5 17.3 36.3 31 51.4 2.5 2.7 4.9 5.5 7.8 7.7 6.8 5.1 10.9 12.1 10.6 20.3-.4 8.3-4.2 15.9-9.9 22.4-8.8 10.1-20.3 15.1-33.3 15.7-10.9.6-22 .5-32.7-1.2-13.6-2.2-23.5-10.4-28.9-23.4-2.4-5.8-4.6-11.7-6.4-17.7-2.1-7.6-3.7-15.4-5.8-23.8z"/>
      <path id="XMLID_152_" d="M983.6 1555.3c-3.1 4.3-5 7.9-7.8 10.6-6 5.7-6.4 12.6-5.7 20.2 1.4 14.2 8.1 26.6 14.3 38.9 1.5 2.9 6.2 4.4 9.7 5.9 2.6 1.1 5.6 1.2 9.7 2-8.4 10.7-18.7 15.9-29.6 19.9-19.2 7.1-39 7.3-59 4.1-14-2.3-24-11-33.1-20.8-3.5-3.7-2.4-13.9 2.8-17.1 15-9.3 22.2-25.1 32.8-38.1 5.5-6.7 11.5-11.6 20-13.7 3.2-.8 6.3-3.5 8.8-5.9 7.8-7.7 16.9-11.7 27.9-9.7 3 .3 5.7 2.2 9.2 3.7z"/>
      <path id="XMLID_151_" d="M1115.2 1609.6c.3 1.3.7 1.9.6 2.6-2.1 21.3 11.7 31.3 27.9 39.7 4.1 2.1 8.8 3.3 12.7 5.7 6.5 4.1 12.4 3.9 18.6-.2 1.9-1.2 4.1-2 6.5-3.1 2.2 9.9-1.4 18.3-5.2 26.2-11.6 24.6-29.7 42.5-55 53.3-8.8 3.7-17.6 2.1-26.3 2.9-5.6.5-13.8-10.5-11.8-16.1 6.2-17.1.1-33.9-.4-50.8-.2-7.3.8-14.1 4.8-19.9 3.2-4.6 4.7-9.2 4.7-14.8-.1-12.6 8.5-19.4 17.8-25.7.7-.5 1.9-.4 2.9-.4.5 0 1.1.3 2.2.6z"/>
      <path id="XMLID_150_" d="M1365.1 1633.3c5.1-1 8-1.1 10.4-2.2 3.5-1.5 8.3-3 9.8-5.8 7.1-13.8 14.7-27.5 14.7-43.9 0-5.4-1-9.6-4.4-13.6-3-3.5-5.5-7.4-8.9-12 2.9-1.7 5.3-4.1 7.7-4.2 5.9-.1 11.8.6 17.6 1.5 2.1.3 4.1 2.2 5.8 3.7 6.5 5.6 13 10.9 21.7 13.1 3.5.9 6.9 4.1 9.3 7.1 6.1 7.4 11.8 15.2 17.5 22.9 4.5 6.1 8.5 12.2 15.6 16.3 10.1 5.9 9.6 14.9 1.8 23.7-16.6 18.6-38.4 19.4-60.6 18.6-16.2-.6-31.3-5.5-44.9-14.5-3.9-2.6-7.5-6.1-13.1-10.7z"/>
      <path id="XMLID_149_" d="M1310.2 1699.3c18.8-15 31.5-32.9 28.4-58.3 7.5-2 13.8-3.7 20.3-5.4 6.7 5.1 14.6 9.3 20 15.7 5.6 6.7 9.8 15.1 12.5 23.4 5 15.8 7.5 32.1 4.9 48.9-1.1 7.1-.6 14.5-.8 21.5-38.5 6.7-68.9-6.9-85.3-45.8z"/>
      <path id="XMLID_148_" d="M976 1746.8c-5.3-24.9-4.7-48.2 2.3-71 3.6-11.9 8.2-23.8 20.5-30.4 4.3-2.3 7.6-6.3 11.6-9.8 6.4 1.6 13 3.3 20.4 5.3.2 2.8.9 5.7.6 8.6-1.3 12.9 4.5 23.1 11.4 33 3.7 5.3 7 10.9 10.6 16.6-7.1 8.6-12.1 17.4-14.2 27.8-.5 2.3-2.6 4.5-4.5 6.2-10.3 9.5-23 12.8-36.5 13.8-7.1.3-14.4-.1-22.2-.1z"/>
      <path id="XMLID_146_" d="M1236.9 1757.7c-18.5-17-35.5-32.6-44.9-54.1-3.4-7.8-5.4-16.3-7.4-24.7-.7-3 .6-6.5 1.1-9.7.7-4.2 2.2-8.4 2.1-12.7-.1-4.9 2.1-7.3 6.2-8.9 4.3-1.7 8.5-3.8 12.9-5.9.6.4 1.6.8 2.1 1.5 8.1 11.5 19.6 17.7 33 20.6 5.5 1.2 9.4 2.6 10.2 9.8.5 5.2 4.1 10.6 7.7 14.8 4.4 5.3 6.4 10.6 5.7 17.3-.2 2.3-.2 4.9.6 6.9 3.1 7.7-.3 13.9-4.9 19.2-7.5 8.8-15.8 16.9-24.4 25.9z"/>
      <path id="XMLID_143_" d="M1310.7 1603.2c.8 2 1.7 4 2.5 6 .7-.1 1.5-.1 2.2-.2.2-4.7.6-9.5.5-14.2-.2-7 1.9-13 6.8-18 3.9-4.1 7.3-8.7 11.6-12.3 3.2-2.7 7.3-5.5 11.2-5.9 10.5-1.1 21.2-1.1 31.8-1 2 0 4.4 1.7 5.8 3.4 3.7 4.2 7.4 8.5 10.4 13.2 1.3 2 2.1 5.2 1.6 7.5-2 8.6-4.7 17.1-7.1 25.6-.3 1-.7 1.9-1 2.8-3.6 10.2-8.7 18.3-21.7 17.5-3.3-.2-6.8 2.4-10.2 3.7-9.5 3.7-19.4 3.8-29.4 3.5-11.1-.4-20.5-10.9-19-21.8.4-3.2 1.5-6.4 2.3-9.5.6-.2 1.2-.3 1.7-.3z"/>
      <path id="XMLID_140_" d="M1056.4 1609.8c1-1.5 1.6-2.4 2.2-3.5.4-.8.7-1.7 1-2.6.7.3 1.6.5 1.7.9 2.2 7.1 3.6 14.1-1.3 20.9-4.3 6-9 9.8-17.2 9.5-9.3-.4-18.4-.4-27.4-3.8-6.1-2.3-12.9-2.8-19.2-4.9-3.2-1.1-7.2-3.2-8.4-5.9-5.2-11-10.7-22-12.6-34.3-.9-6 .5-10.5 3.6-15.7 6.6-10.9 16.1-13.7 27.7-13h1c19.8-2.3 32.5 8.3 42.7 23.5 3.4 5 3.5 10.5 3.8 16.2.2 3.9-1.5 8.4 2.4 12.7z"/>
      <path id="XMLID_137_" d="M1207.4 1600.6c-.5-2.5-.9-4.3-1.2-6.2.6.1 1.3-.1 1.6.2 6.7 5.6 13.4 11.4 12.1 21.4-.4 3.1-1.5 6.6-3.5 8.8-7.2 7.8-15.2 14.7-25.2 18.9-6.4 2.7-12.7 5.7-18.7 9.2-4.5 2.6-8.3 2.8-13 .4-10.9-5.4-22.5-9.6-31.4-18.6-8.5-8.7-8.5-26.5.4-34.4 5-4.4 9.9-8.7 14.9-13.1 6.4-5.5 13.5-8.2 22-6.3 1.3.3 2.6.5 4 .4 12.4-.7 21.6 5 29.2 14.2 2 2.3 3.4 5.8 8.8 5.1z"/>
      <path id="XMLID_134_" d="M1301.5 1607.6c.2 3.8.3 6.8.4 9.7.3 8.7 5.3 14.9 11.8 19.8 2.2 1.7 6.3 1.8 9.3 1.4 8-1.2 12.4 2 12.9 10 .6 8.5-4.2 15.2-7.8 22.1-3.3 6.4-8.5 11.8-12.9 17.6-2.3 3-5.1 4.5-9.4 4.1-10.2-.9-20.5-1.2-30.7-1.6-5.9-.2-10.1-2.9-12.9-8-8.2-14.6-12.5-30-8.1-46.7 2.2-8.3 6.7-15.2 14.4-19.5 10-5.5 20.4-9.2 33-8.9z"/>
      <path id="XMLID_131_" d="M1425.7 1804.3c18.4-2.9 24.9-11.8 18.9-27.5-1.1 3.8-2 6.8-2.9 9.8-3.2 11.1-7.5 12.9-16.7 8.2-3.9-10.3-7.3-19.5-10.7-28.5 8.3.9 17.1 1.7 25.8 3 2.2.3 4.1 2.6 5.1 3.2 4.2-3.1 7.8-6.1 11.7-8.6 6.9-4.5 13.9-8.7 21.7-13.6 4.3 7.3 8.6 14.3 12.7 21.3 2 3.4 3.5 7.2 6 10.3 7.5 9.5 10.4 20.3 11.4 32.2 1 12.9-2.7 19.2-15.2 22.7-9.9 2.7-19.4 3-28.5-3.2-5.4-3.7-12.4-5.2-17.5-9.1-7.8-6.1-14.6-13.4-21.8-20.2z"/>
      <path id="XMLID_128_" d="M969.7 1752.3c23.7.8 45.8.5 66.6-13 1 5.1 2.2 9.7 2.8 14.4 2.5 18.6-2.3 35.1-16.9 47.2-10 8.3-22.3 13-35.1 15.7-4.2.9-8.5 1.2-12.8 1.9-7.4 1.3-13-1.4-16.8-7.8-5.4-8.9-7.9-18.1-2.8-28.2 5.1-9.9 10-20 15-30.2z"/>
      <path id="XMLID_125_" d="M1333.5 1738.7c20.8 15.1 43.6 14.3 66.8 13.7 5.3 10.6 10.7 20.9 15.5 31.4 4.8 10.6 1.5 24.9-7.5 31.7-2.9 2.2-7.4 3.3-11.1 3-14-1.2-27.1-5.2-39.9-11.4-17.9-8.7-29.3-29.4-26.6-51.3.6-5.2 1.7-10.3 2.8-17.1z"/>
      <path id="XMLID_122_" d="M891 1750.8c9.8 5.6 19.1 10.5 28 16.2 1.9 1.3 2.7 5 3.1 7.8.5 3.2-.3 6.7.1 10 1.5 12.5 6.5 16.8 22.3 18.1-10.5 10.4-18.2 21.9-31.6 27.2-2.8 1.1-5.7 2.1-8.1 3.7-9.8 6.9-20.5 4.6-30.7 2.3-9.9-2.2-13.8-9.9-12.8-21.5 1-11.7 3.8-22.6 11.1-32.4 5.3-7.2 9.2-15.4 13.7-23.2 1.5-2.7 3.2-5.5 4.9-8.2z"/>
      <path id="XMLID_119_" d="M1174.5 1814.7c6.3-.5 11.1-.6 16-1.3 3.9-.5 8-1.2 11.7-2.6 5.1-1.9 8.8-1.4 12 3.3 1.6 2.4 4.2 4.3 6.5 6.1 10.8 8.6 15.6 10.4 28.7-.2 0 5.4.2 10.1-.1 14.8-.2 3.3-.6 6.6-1.3 9.8-1.1 5.1-2.3 10.3-3.9 15.3-.9 2.8-3.1 5.3-3.8 8.1-3.3 14.1-14.7 19.5-26.2 25.1-3.9 1.9-7.1 1.5-10.1-1.1-9.7-8.7-18.7-17.6-20.7-31.7-2-14.8-5.6-29.2-8.8-45.6z"/>
      <path id="XMLID_116_" d="M1235.8 1766c12.7-12.8 23.8-24 35.6-36 1.4 1.7 3.6 4.2 5.7 7 4.8 6.4 11 10.4 18.7 12.2 8.6 2 13.5 9.1 11.4 17.6-4.7 18.3-13.6 34.4-27.2 47.7-3.3 3.2-6.9 4-11.7 3.3-14.2-2.2-22.5-10.4-25.9-24-2.4-9.6-4.6-19.3-6.6-27.8z"/>
      <path id="XMLID_113_" d="M1109.3 1836.1c21.3-2.7 21.8 5 58.7-21.2 1.6 4.5 3.6 8.6 4.5 13 2.6 13.9 4.4 28.1 7.2 42 2.4 11.5-2.7 20.2-9.2 28.2-4.3 5.3-18.9 5.1-24.8 1.2-17.2-11.3-25-28.8-31.5-47.2-1.8-5.2-3.2-10.6-4.9-16z"/>
      <path id="XMLID_110_" d="M1541.5 1722.4c12 25.3 22.2 49.8 12.8 78.6-4.8 2.7-10.6 6-16.3 9.3-1-.3-1.9-.8-2.9-.9-13.6-1.5-21.5-10-27.7-21.4-7.7-14.1-16.3-27.8-25.7-43.5 24 1.2 43.5-5.2 59.8-22.1z"/>
      <path id="XMLID_107_" d="M832.2 1810.4c-5.9-3.4-11.3-6.5-16.1-9.2-10-28.5.5-53.1 12.4-78.9 16 17.1 35.7 23 59.1 22.7-5.7 10.4-10.5 19.4-15.6 28.1-4.5 7.7-9.8 15-14.3 22.7-4 6.7-9.2 11.1-17.2 12-2.7.2-5.2 1.5-8.3 2.6z"/>
      <path id="XMLID_95_" d="M902.1 1592.1c-4.8 6.3-7.5 13.5-14.7 18-6.3 4-12.1 9.1-12 18.2 0 6.6 1.4 11.6 7.2 15.2 2.7 1.7 4.8 4.5 7.8 7.3-2.9 5.3-5.6 10.5-8.5 15.7-2 3.7-5.2 4.8-9.3 3.7-13.5-3.6-32.2-24.1-33.9-37.8-3.1-23.8 10.6-37.3 31-43 11.4-3.1 17-1.9 32.4 2.7z"/>
      <path id="XMLID_94_" d="M1078.5 1687.4c1.3 10.6 3.6 18.6.6 26.7-2.6 7.1-1.8 13.4 3 19.6 4.6 6 10 8.1 17.3 7.2 8.5-1.1 9.1-.4 10.9 8.2.1.6.4 1.3.6 1.9 2.8 14 .6 17.8-13.2 19.3-9.5 1-19.1 1.2-28.5-2.6-27.2-10.9-33.6-40.4-13.9-61.5 6.2-6.5 14.3-11.6 23.2-18.8z"/>
      <path id="XMLID_93_" d="M1479.6 1650.8c3.6-3.2 6.6-5.9 9.5-8.5 3.4-2.9 4.6-6.2 5.1-11 1.1-10-3.7-16.2-11-20.6-7.3-4.4-10.3-11.6-15.6-18.5 16.8-4.7 32.1-6.4 47.2 3.4 17.3 11.3 20.9 30.9 12.9 47.2-5.9 12-15.9 20.3-27.7 26.3-6.6 3.3-9.1 2.3-12.9-4.3-2.3-4.4-4.6-8.8-7.5-14z"/>
      <path id="XMLID_92_" d="M1072.3 1775.7c8.9-.5 16.5-1.7 24.4-.8 5.8.6 12.1-2.3 18.7-3.8 6.2 21.1 17.2 38.6 42.8 42.1-6.7 9.1-15.4 13.2-24.6 15.5-14.2 3.6-15.6 3.6-29.1.1-12.2-3.2-21.1-11.1-26.2-22.8-4.1-9.4-6.8-19.2-6-30.3z"/>
      <path id="XMLID_91_" d="M841.5 1653.3c10.2 9.1 19 20.5 35.2 22.9-10 21-12.4 41.5 2.7 61-18.5 4.2-41.7-8.8-52-27.2-9.3-16.2-1.9-44.2 14.1-56.7z"/>
      <path id="XMLID_90_" d="M1493.3 1676.3c16.3-2.9 25.3-13.9 35.4-23.3 15.9 13.8 22.7 38.4 15 54.8-7.3 15.6-27.7 33.1-53.4 29.9 15.4-19.5 13.6-40 3-61.4z"/>
      <path id="XMLID_89_" d="M1258.8 1617.8c-7.6 8-12.5 16.8-9.4 28.5.9 3.6-.1 7.7-.3 12.5-16.8-1.1-28.6-8-37.2-21.4 5.5-7.1 14.2-11.4 13.2-22.4-.8-9.3-5-16.2-10.9-23.5 14-11 28.2-19.3 47.2-13.6 2 14.6-7.2 25.9-11.2 39.3 3.4.3 6.2.5 8.9.8l-.3-.2z"/>
      <path id="XMLID_88_" d="M1049.5 1570.8c-3.8-3.7-7.1-6.8-10.3-10-5.4-5.5-11.9-8.2-19.6-8.1-9 .1-18 .1-27 0-7.1-.1-9.5-3-8.5-10 .4-2.6 1.7-5.2 1.7-7.8.1-12.8 3.2-12.8 15.2-11.5 20.2 2.2 35 13.5 46.3 29.7 3.3 4.9 6.1 10.4 2.2 17.7z"/>
      <path id="XMLID_86_" d="M1382.5 1524.9c1.3 7.1 2.6 12.6 3.4 18.2.9 7-1.4 9.5-8.8 9.6-7.6.1-15.3.4-22.9-.1-10.3-.6-18.8 2.5-25.7 10.4-2.2 2.5-4.8 4.5-7.6 7.1-5-5.7-1.6-10.9 1-15.3 6.7-11.4 16.2-20.4 28.2-25.7 6.8-3 14.4-4.5 21.8-5.8 3.2-.5 6.9 1 10.6 1.6z"/>
      <path id="XMLID_85_" d="M1068.6 1607.3c9.7 1 18.3 1.2 26.5 6.7-3.8 4.2-7.1 8.4-10.9 12-11 10.3-20.9 21.2-24.9 36.4-1.7 6.6-5.3 12.8-8.1 19.3-12-9.8-16.4-22.1-14.6-40.9 4.6-1.2 8.7-4.7 14.6-2.4 1.9.7 5.7-1.5 7.6-3.4 5.1-5.2 9.6-11 9.1-19.1-.1-2.5.4-5.2.7-8.6z"/>
      <path id="XMLID_84_" d="M1208.7 1588.2c-6.3-2.8-12.5-5.5-18-7.9 0-6.7.1-12.3 0-17.8-.1-4.1.3-7.9 3.9-10.7 1.1-.8 1.3-2.7 2.7-5.6-3.1.9-4.9 1.2-6.4 2-.8.4-1.3 1.5-1.8 2.4-6.4 11.2-17.1 12.3-29.9 12.1 6.8-5.1 13.1-8.7 18-13.7 5.1-5.1 8.9-11.4 12.9-16.9-8.3-14.8-7.8-30.7-13.4-44.9 4.9-3.4 7.5-2.6 8.9 2.2 3.4 11.8 6.8 23.6 10.4 35.3 5.5 18.1 11 36.2 16.8 54.2 1.6 4.9.5 7.5-4.1 9.3z"/>
      <path id="XMLID_83_" d="M1277.5 1567.6c1.3 14 .1 26.9-15 34.1 1-3.4 1.7-6.2 2.7-8.9 3.7-10 3.2-20.2 1-30.4-.4-1.8-1.8-4.6-3.1-4.7-10.7-1.4-16.5-10.6-25-15.3-4.2-2.4-8.1-5.5-12-8.3 2.4-6.4 5.7-5.2 9.6-2.7 16.8 10.8 33.6 21.5 50.4 32.1 8.9 5.6 18 11.1 27.6 17-3.5 7.1-6.7 14-10.3 20.6-1.3 2.5-5.9 2-6.3-.8-1.5-9.9-7.9-16.5-13.7-23.8-1.8-2.3-2-5.8-2.9-8.8-1 .1-2 0-3-.1z"/>
      <path id="XMLID_82_" d="M1176.2 1576.8c-4.2-.4-7.2-.4-10.1-1.1-8.4-2.3-16 .1-22.4 5-7.9 5.9-15.1 12.9-22.7 19.3-5.9 5-7.3 4.9-12-.8-1.1-1.3-2-2.6-2.9-4-8.5-12.5-8.3-13.7 3.5-23.2 7.2-5.8 15.7-8.4 24.8-9.2 1.3-.1 3.3-.4 3.8.3 6.8 9 16.4 4.1 24.4 4.2 7.1.2 10.3 2.3 13.6 9.5z"/>
      <path id="XMLID_81_" d="M1280.6 1821.4c8.4 13.9 5.1 24.9-4.7 35.1-3.2 3.3-6.1 7-9.2 10.4-8.1 8.7-10.1 8.7-19.9.3 8.4-14.2 7.9-30.1 7.1-46.7 9.4.7 17.9 5.8 26.7.9z"/>
      <path id="XMLID_80_" d="M1143.8 1534c-10.3 7.5-20.2 14.7-30.2 21.9-1 .7-2.4 1.5-3.6 1.4-5.1-.3-6.2 3.3-6.5 7-.4 6.7-3.9 10.9-10 14.5-.7-4.1-1.4-7.6-2-11-.6-.1-1.3-.1-1.9-.2-2.1 12.8-15 19.5-16.7 32.7-.4 3.5-4.7 3.5-6.5.2-3.4-6.3-6.6-12.8-10.2-19.9 6.3-3.8 11.9-7.1 17.5-10.6 20.2-12.8 40.4-25.6 60.5-38.4 3.5-2.3 7-4.4 9.6 2.4z"/>
      <path id="XMLID_79_" d="M1459.4 1837.3c-1.5 4.1-2 7.3-3.7 9.5-1.3 1.7-4.3 3.1-6.5 3.1-6.9-.2-13.9-.5-20.7-1.9-13.3-2.6-18.4-4.8-25.2-20.8 6.3-6.5 12.4-12.8 18.8-19.5 11 10.7 21.1 23.2 37.3 29.6z"/>
      <path id="XMLID_65_" d="M949.3 1807.9c5 6.3 8.1 14.6 17.2 16.6-3.1 14.5-9.8 20.8-23.8 22.6-6.3.8-12.5 1.8-18.8 2.5-8.9 1-9.9.3-12.2-8.5-.2-.9-.2-1.9-.2-1.6 12.9-10.8 25-20.9 37.8-31.6z"/>
      <path id="XMLID_64_" d="M1299.7 1695.2c2.6 2.8 3.7 3.6 4.1 4.6 4.7 11.4 11.5 21.6 20.2 30.3 2.9 2.9 3.7 6.1 3.4 9.9-.6 6.6-1.3 13.1-2.1 20.3-10.9-2.3-19.3-8-21.7-18.9-2.7-12.2-3.5-24.7-4.9-37.2-.3-2.1.4-4.3 1-9z"/>
      <path id="XMLID_63_" d="M1297.2 1743c-18.4-3.5-32.4-30-24.9-47.4 5.9.3 11.8.7 17.7 1 4.1.2 6.1 2.2 5.9 6.4-.3 5.5-.9 11.1-.6 16.6.3 7.8 1.2 15.6 1.9 23.4z"/>
      <path id="XMLID_62_" d="M1086.7 1632c1.4 10.1-6.7 16-7.6 24.1-.9 8.1-1.1 16.3-1.8 26-5.3 3.8-12 8.6-19.3 13.8-3.3-5.6-2.3-10.3-.6-14.9 3.7-9.6 7.1-19.3 11.4-28.6 3.8-8.1 10.2-14.4 17.9-20.4z"/>
      <path id="XMLID_61_" d="M945.7 1552.1c-2.8 6.8-6.4 8.6-10.6 10-9 3-16.9 7.8-21.8 16.2-3.9 6.8-9.7 8.3-16.9 6.8-4.5-.9-9-1.6-13.8-2.5.1-5.8 4.2-8.2 8.2-10.3 9.6-5.1 19.1-10.6 29.2-14.6 7.5-2.8 15.9-3.5 25.7-5.6z"/>
      <path id="XMLID_60_" d="M1424.3 1555.7c23.2-3.9 39.7 10.1 58 18.6 2.5 1.2 4 4.6 6.8 8-5.2 1.1-8.7 1.7-12.2 2.5-9.3 2.1-16.8.5-21.9-8.6-4.1-7.3-11.4-10.7-19-13.7-4.2-1.7-7.9-4.5-11.7-6.8z"/>
      <path id="XMLID_59_" d="M927.2 1770.3c9.9-1.5 19-2.9 29-4.4-1.7 4.1-3.5 8.1-5.1 12.2-1.4 3.7-3.3 7.4-3.6 11.2-.4 4.5-2.3 6.6-6.4 7.5-4.4 1-7.9-.3-10.6-3.7-3.4-4.5-4.9-15.1-3.3-22.8z"/>
      <path id="XMLID_58_" d="M1244.9 1814.3c-6.5 8.7-11.5 9.5-20.1 2.9-3.9-3-7.9-6-12.6-9.5 5.7-5.3 9.5-8.3 12.8-11.9 3-3.3 5.5-7.2 8.5-11.3 3.8 9.9 7.4 19.3 11.4 29.8z"/>
      <path id="XMLID_57_" d="M1092.8 1831.4c6.8.4 9.8 2.6 11.5 7.9 3.7 11.3 8.2 22.2 12.1 33.4.7 2.1.1 4.7-1 7.2-14.4-12.9-22.9-28.2-22.6-48.5z"/>
      <path id="XMLID_56_" d="M1549.5 1708.6c15.6 14 18 31.4 18.1 49.6-4.9 1.9-6.6-.6-7.9-4-4.3-11.4-8.6-22.8-13.1-34.1-1.7-4.5.9-7.3 2.9-11.5z"/>
      <path id="XMLID_55_" d="M819.9 1709.2c4 4.2 4.7 7.8 2.4 12.9-4.3 9.7-7.3 19.9-11.1 29.8-1.2 3.2-2.1 7.4-7.1 7-4.9-13.6 2.2-36.4 15.8-49.7z"/>
      <path id="XMLID_54_" d="M856 1807.3c.9 10 1.7 18.8 2.6 27.9-6.7 2.4-14.9.1-16.3-5.4-1.3-5.1-3-11.1.4-15.2 2.7-3.4 8.1-4.6 13.3-7.3z"/>
      <path id="XMLID_53_" d="M1514.7 1807.8c4.8 2.4 9.9 3.6 12.6 6.8 2.1 2.5 2 7.6 1.4 11.3-1.3 8.6-5.7 10.8-17.8 10 1.2-9 2.4-17.9 3.8-28.1z"/>
      <path id="XMLID_52_" d="M1185.3 1882.1c7.6 6.7 14.3 12.6 21 18.5-4.9 6.7-12.1 10.4-16.1 6.9-3.7-3.1-8.1-7.2-9-11.5-.8-4 2.5-8.9 4.1-13.9z"/>
      <path id="XMLID_51_" d="M1079.1 1602.6c-.8-6.6 1.4-11.4 6.4-15.7 2.8 3.5 5.5 7.1 8.4 10.4 2.8 3.3 5.9 6.5 8.8 9.8-.5.7-1 1.4-1.4 2.1-7.4-2.1-14.7-4.3-22.2-6.6z"/>
      <path id="XMLID_50_" d="M1259 1618c-.1-1.2-.6-2.9-.1-3.5 6.7-6.7 13.5-13.2 20.9-20.4 2.4 3.2 4.3 5.7 5.8 7.7-9.3 5.5-18.2 10.7-26.9 15.9l.3.3z"/>
      <path id="XMLID_49_" d="M1183 1576c-1.6-2.8-3.3-5.5-5.3-9 2.5-1.1 4.8-2 8.5-3.6-.6 4.9-1 8.7-1.5 12.5-.6.1-1.2.1-1.7.1z"/>
      <path id="XMLID_48_" d="M1285.2 1587.2c1.7 2.5 3.5 5 5.2 7.5-.7.5-1.3.9-2 1.4-1.7-2.5-3.4-5-5.1-7.6.6-.5 1.2-.9 1.9-1.3z"/>
    </g>
    <g id="Letters">
      <path id="A" d="M1775.8 1075.1l57 314h-101.9l-5.4-56.4h-35.7l-6 56.4h-103.1l50.9-314h144.2zm-52.9 201.9c-5-35.6-10.1-79.5-15.2-131.9-10.2 60.1-16.5 104.1-19.1 131.9h34.3z"/>
      <path id="M" d="M1565.8 1075.1v314h-87.1l-.1-212-34.7 212h-61.8l-36.6-207.1-.1 207.1h-87.1v-314h129c3.8 18.9 7.8 41.1 11.8 66.7l14.2 79.9 22.9-146.6h129.6z"/>
      <path id="I" d="M1220.1 1075.1v314h-99.7v-314h99.7z"/>
      <path id="T" d="M1832.8 960.7v84h-751.1v344.4H982v-344.4H533.5v-84h1299.3z"/>
      <path id="L" d="M897.9 1075.1v251.1h60.6v62.8H798.3v-314h99.6z"/>
      <path id="U" d="M761.6 1075.1v209.8c0 23.8-.9 40.5-2.8 50.1-1.9 9.6-7.5 19.5-16.8 29.7s-21.6 17.8-36.8 23.1c-15.2 5.2-33.2 7.9-53.9 7.9-22.9 0-43.1-3.1-60.6-9.3-17.5-6.2-30.6-14.3-39.3-24.2-8.7-10-13.8-20.5-15.4-31.5-1.6-11.1-2.4-34.3-2.4-69.7v-185.8h99.7v235.4c0 13.7.9 22.5 2.7 26.3 1.8 3.8 5.5 5.7 11 5.7 6.3 0 10.4-2.1 12.2-6.3 1.8-4.2 2.7-14.1 2.7-29.8v-231.4h99.7z"/>
    </g>
  </g>
</svg>
